SplineFontDB: 3.0
FontName: OxygenMono-Regular
FullName: Oxygen Mono
FamilyName: Oxygen Mono
Weight: Book
Copyright: Copyright (c) 2012, Vernon Adams (vern@newtypography.co.uk), with Reserved Font Names 'Oxygen'
Version: 0.201; ttfautohint (v0.8) -r 50 -G 200 -x
ItalicAngle: 0
UnderlinePosition: -132
UnderlineWidth: 132
Ascent: 1868
Descent: 410
InvalidEm: 0
sfntRevision: 0x00003333
LayerCount: 2
Layer: 0 0 "Back" 1
Layer: 1 0 "Fore" 0
FSType: 0
OS2Version: 0
OS2_WeightWidthSlopeOnly: 0
OS2_UseTypoMetrics: 1
CreationTime: 1345291289
ModificationTime: 1535400599
PfmFamily: 49
TTFWeight: 400
TTFWidth: 5
LineGap: 0
VLineGap: 0
OS2TypoAscent: 1868
OS2TypoAOffset: 0
OS2TypoDescent: -410
OS2TypoDOffset: 0
OS2TypoLinegap: 0
OS2WinAscent: 1868
OS2WinAOffset: 0
OS2WinDescent: 410
OS2WinDOffset: 0
HheadAscent: 1780
HheadAOffset: 0
HheadDescent: -498
HheadDOffset: 0
OS2Vendor: 'newt'
MarkAttachClasses: 1
DEI: 91125
LangName: 1033 "" "" "" "newtypography : Oxygen Mono" "" "Version 0.2" "" "Oxygen Mono is a trademark of vernon adams." "Vernon Adams" "Vernon Adams" "Copyright (c) 2011-12 by vernon adams. All rights reserved." "newtypography.co.uk" "newtypography.co.uk" "" "http://scripts.sil.org/OFL" "" "Oxygen Mono" "Regular" "Oxygen Mono"
PickledData: "(dp1
S'com.typemytype.robofont.foreground.layerStrokeColor'
p2
(F0.5
F0
F0.5
F0.69999999999999996
tp3
sS'com.typemytype.robofont.b.layerStrokeColor'
p4
(F0.5
F1
F0
F0.69999999999999996
tp5
sS'com.typemytype.robofont.layerOrder'
p6
(S'b'
tp7
sS'com.typemytype.robofont.segmentType'
p8
S'curve'
p9
sS'org.robofab.glyphOrder'
p10
(S'A'
S'Aacute'
S'Abreve'
S'Acircumflex'
S'Adieresis'
S'Agrave'
S'Amacron'
S'Aogonek'
S'Aring'
S'Atilde'
S'AE'
S'B'
S'C'
S'Cacute'
S'Ccaron'
S'Ccedilla'
S'Ccircumflex'
S'Cdotaccent'
S'D'
S'Eth'
S'Dcaron'
S'Dcroat'
S'E'
S'Eacute'
S'Ecaron'
S'Ecircumflex'
S'Edieresis'
S'Edotaccent'
S'Egrave'
S'Emacron'
S'Eogonek'
S'F'
S'G'
S'Gbreve'
S'Gcircumflex'
S'Gcommaaccent'
S'Gdotaccent'
S'H'
S'Hbar'
S'Hcircumflex'
S'I'

StartChar: A
Encoding: 33 65 0
Width: 1367
VWidth: 0
Flags: HW
HStem: 0 23G<151 347 1019 1216> 494 131<520 846>
LayerCount: 2
Fore
SplineSet
789 1493 m 5
 1216 0 l 5
 1025 0 l 5
 885 494 l 5
 481 494 l 5
 341 0 l 5
 151 0 l 5
 577 1493 l 5
 789 1493 l 5
520 625 m 5
 846 625 l 5
 686 1304 l 5
 520 625 l 5
EndSplineSet
PickledData: "(dp1
S'com.typemytype.robofont.layerData'
p2
(dp3
s."
EndChar

StartChar: AE
Encoding: 133 198 1
Width: 1367
VWidth: 0
Flags: HW
LayerCount: 2
Fore
SplineSet
805 685 m 1
 805 146 l 1
 1126 146 l 1
 1110 0 l 1
 638 0 l 1
 638 494 l 1
 403 494 l 1
 263 0 l 1
 82 0 l 1
 528 1493 l 5
 1092 1493 l 1
 1077 1346 l 1
 805 1346 l 1
 805 844 l 1
 1043 844 l 1
 1043 685 l 1
 805 685 l 1
638 1354 m 1
 442 625 l 1
 638 625 l 1
 638 1354 l 1
EndSplineSet
EndChar

StartChar: B
Encoding: 34 66 10
Width: 1367
VWidth: 0
Flags: HW
HStem: 13 146<396 845> 737 152<396 800> 1359 147<396 811>
VStem: 209 187<159 737 890 1359> 892 196<972 1283> 968 198<269 628>
LayerCount: 2
Fore
SplineSet
1166 446 m 4xf4
 1166 118 909 13 568 13 c 6
 209 13 l 5
 209 1506 l 5
 516 1506 l 6
 827 1506 1088 1450 1088 1139 c 4xf8
 1088 958 972 865 821 824 c 5
 1015 796 1166 648 1166 446 c 4xf4
588 737 m 6
 396 737 l 5
 396 159 l 5
 570 159 l 6
 843 159 968 221 968 456 c 4xf4
 968 675 818 737 588 737 c 6
544 890 m 6
 731 890 892 931 892 1105 c 4xf8
 892 1340 785 1358 485 1359 c 5
 396 1359 l 5
 396 890 l 5
 544 890 l 6
EndSplineSet
PickledData: "(dp1
S'com.typemytype.robofont.layerData'
p2
(dp3
s."
EndChar

StartChar: C
Encoding: 35 67 11
Width: 1367
VWidth: 0
Flags: HW
HStem: -24 155<624 982> 1365 152<637 990>
VStem: 198 197<434 1056>
LayerCount: 2
Fore
SplineSet
1165 1373 m 5
 1064 1261 l 5
 995 1320 919 1365 800 1365 c 4
 535 1365 395 1075 395 749 c 4
 395 406 539 130 790 130 c 4
 910 130 996 175 1066 238 c 5
 1165 121 l 5
 1073 32 946 -24 776 -24 c 4
 438 -24 198 304 198 751 c 4
 198 1218 452 1517 792 1517 c 4
 942 1517 1063 1479 1165 1373 c 5
EndSplineSet
PickledData: "(dp1
S'com.typemytype.robofont.layerData'
p2
(dp3
s."
EndChar

StartChar: D
Encoding: 36 68 15
Width: 1367
VWidth: 0
Flags: HW
HStem: 0 146<448 754> 1346 147<448 745>
VStem: 261 187<146 1346> 1002 196<404 1062>
LayerCount: 2
Fore
SplineSet
261 1493 m 5
 483 1493 l 6
 965 1493 1198 1198 1198 725 c 4
 1198 246 970 0 469 0 c 6
 261 0 l 5
 261 1493 l 5
466 146 m 6
 889 146 1002 346 1002 725 c 4
 1002 1103 896 1346 467 1346 c 6
 448 1346 l 5
 448 146 l 5
 466 146 l 6
EndSplineSet
PickledData: "(dp1
S'com.typemytype.robofont.layerData'
p2
(dp3
S'b'
(dp4
S'name'
p5
S'D'
sS'lib'
p6
(dp7
sS'unicodes'
p8
(tsS'width'
p9
I1229
sS'contours'
p10
(tsS'components'
p11
(tsS'anchors'
p12
(tsss."
EndChar

StartChar: E
Encoding: 37 69 18
Width: 1367
VWidth: 0
Flags: HW
HStem: 0 146<482 1145> 685 159<482 1077> 1346 147<482 1110>
VStem: 294 188<146 685 844 1346>
LayerCount: 2
Fore
SplineSet
482 685 m 1
 482 146 l 1
 1159 146 l 1
 1145 0 l 1
 294 0 l 1
 294 1493 l 1
 1126 1493 l 1
 1110 1346 l 1
 482 1346 l 1
 482 844 l 1
 1077 844 l 1
 1077 685 l 1
 482 685 l 1
EndSplineSet
PickledData: "(dp1
S'com.typemytype.robofont.layerData'
p2
(dp3
s."
EndChar

StartChar: Eng
Encoding: 222 330 24
Width: 1367
VWidth: 0
Flags: HW
LayerCount: 2
Fore
SplineSet
716 1519 m 0
 717 1519 716 1519 717 1519 c 0
 948 1519 1100 1365 1100 1010 c 2
 1100 13 l 2
 1100 -301 1000 -458 683 -458 c 0
 580 -458 345 -430 345 -430 c 1
 335 -268 l 1
 335 -268 591 -299 706 -299 c 0
 842 -299 913 -209 913 -39 c 2
 913 1004 l 2
 913 1241 865 1365 661 1365 c 0
 464 1365 316 1252 316 1012 c 2
 316 2 l 1
 129 2 l 1
 129 1493 l 1
 304 1493 l 1
 316 1344 l 1
 416 1464 548 1518 716 1519 c 0
EndSplineSet
EndChar

StartChar: Eth
Encoding: 143 208 26
Width: 1367
VWidth: 0
Flags: HW
LayerCount: 2
Fore
SplineSet
376 146 m 2
 799 146 912 346 912 725 c 0
 912 1103 806 1346 377 1346 c 2
 358 1346 l 1
 358 849 l 1
 634 849 l 1
 634 715 l 1
 358 715 l 1
 358 146 l 1
 376 146 l 2
90 715 m 1
 90 849 l 1
 171 849 l 1
 171 1493 l 1
 393 1493 l 2
 875 1493 1108 1198 1108 725 c 0
 1108 246 880 0 379 0 c 2
 171 0 l 1
 171 715 l 1
 90 715 l 1
EndSplineSet
EndChar

StartChar: Euro
Encoding: 276 8364 27
Width: 1367
VWidth: 0
Flags: HW
LayerCount: 2
Fore
SplineSet
214 711 m 5
 212 735 210 762 210 788 c 4
 210 810 211 831 212 852 c 5
 75 852 l 5
 100 1002 l 5
 234 1002 l 5
 292 1307 432 1537 762 1537 c 4
 878 1537 1010 1509 1157 1446 c 5
 1117 1292 l 5
 984 1362 871 1391 775 1391 c 4
 539 1391 472 1209 428 1002 c 5
 1026 1002 l 5
 1001 852 l 5
 408 852 l 5
 407 831 406 807 406 785 c 4
 406 759 407 734 409 711 c 5
 986 711 l 5
 965 561 l 5
 425 561 l 5
 462 296 601 126 821 126 c 4
 911 126 1016 155 1132 217 c 5
 1131 63 l 5
 1013 6 903 -20 802 -20 c 4
 492 -20 274 225 227 561 c 5
 78 561 l 5
 100 711 l 5
 214 711 l 5
EndSplineSet
EndChar

StartChar: F
Encoding: 38 70 28
Width: 1367
VWidth: 0
Flags: HW
HStem: 0 23G<306 493> 684 162<493 1097> 1346 147<493 1122>
VStem: 306 187<0 684 846 1346>
LayerCount: 2
Fore
SplineSet
493 684 m 5
 493 0 l 5
 306 0 l 5
 306 1493 l 5
 1140 1493 l 5
 1122 1346 l 5
 493 1346 l 5
 493 846 l 5
 1097 846 l 5
 1097 684 l 5
 493 684 l 5
EndSplineSet
EndChar

StartChar: G
Encoding: 39 71 29
Width: 1367
VWidth: 0
Flags: HW
HStem: -24 155<573 964> 625 153<689 979> 1257 23G<1025 1073> 1365 152<612 985>
VStem: 151 196<420 1030> 979 174<162 625>
LayerCount: 2
Back
SplineSet
1125.65234375 1425.97460938 m 1
 1029.43261719 1484.95214844 936.551757812 1511.20410156 850.32421875 1511.20410156 c 0
 550.740234375 1511.20410156 331.466796875 1194.31152344 331.466796875 832.00390625 c 0
 331.466796875 469.392578125 462.71875 144.599609375 770.827148438 144.599609375 c 0
 902.079101562 144.599609375 988.838867188 175.744140625 1033.33105469 211.337890625 c 1
 1033.33105469 695.190429688 l 1
 710.762695312 695.190429688 l 1
 710.762695312 865.373046875 l 1
 1225.75976562 865.373046875 l 1
 1225.75976562 133.4765625 l 1
 1113.41699219 47.8291015625 973.266601562 -27.8076171875 750.805664062 -27.8076171875 c 0
 315.89453125 -27.8076171875 113.455078125 364.8359375 113.455078125 834.228515625 c 1
 113.455078125 1309.0234375 417.631835938 1686.30664062 812.171875 1686.30664062 c 0
 934.907226562 1686.30664062 1066.38867188 1649.79492188 1200.17675781 1568.34960938 c 1
 1125.65234375 1425.97460938 l 1
EndSplineSet
Fore
SplineSet
1062 1257 m 5
 987 1327 906 1365 781 1365 c 4
 510 1364 347 1063 347 749 c 4
 347 423 466 130 743 130 c 4
 861 130 939 158 979 190 c 5
 979 625 l 5
 689 625 l 5
 689 779 l 5
 1152 779 l 5
 1152 120 l 5
 1051 43 925 -24 725 -24 c 4
 333 -24 151 328 151 751 c 4
 151 1215 433 1517 767 1517 c 4
 929 1517 1033 1479 1129 1394 c 5
 1062 1257 l 5
EndSplineSet
PickledData: "(dp1
S'com.typemytype.robofont.layerData'
p2
(dp3
s."
EndChar

StartChar: H
Encoding: 40 72 31
Width: 1367
VWidth: 0
Flags: HW
HStem: 0 23G<209 396 971 1158> 703 153<396 971>
VStem: 209 187<0 703 856 1493> 971 187<0 703 856 1493>
LayerCount: 2
Fore
SplineSet
396 0 m 1
 209 0 l 1
 209 1493 l 1
 396 1493 l 1
 396 856 l 1
 971 856 l 1
 971 1493 l 1
 1158 1493 l 1
 1158 0 l 1
 971 0 l 1
 971 703 l 1
 396 703 l 1
 396 0 l 1
EndSplineSet
EndChar

StartChar: I
Encoding: 41 73 32
Width: 1367
VWidth: 0
Flags: HW
HStem: 0 146<263 585 773 1105> 1346 146<263 585 773 1105>
VStem: 585 187<146 1346>
LayerCount: 2
Fore
SplineSet
263 1346 m 1
 263 1493 l 1
 1105 1493 l 1
 1105 1346 l 1
 773 1346 l 1
 773 146 l 1
 1105 146 l 1
 1105 0 l 1
 263 0 l 1
 263 146 l 1
 585 146 l 1
 585 1346 l 1
 263 1346 l 1
EndSplineSet
EndChar

StartChar: J
Encoding: 42 74 38
Width: 1367
VWidth: 0
Flags: HW
HStem: -16 148<230 703> 1346 147<365 793>
VStem: 793 188<235 1346>
LayerCount: 2
Fore
SplineSet
226 0 m 5
 225 151 l 5
 324 144 419 132 501 132 c 4
 674 132 793 184 793 433 c 6
 793 1346 l 5
 365 1346 l 5
 365 1493 l 5
 981 1493 l 5
 981 444 l 6
 981 64 794 -16 511 -16 c 4
 424 -16 328 -8 226 0 c 5
EndSplineSet
PickledData: "(dp1
S'com.typemytype.robofont.layerData'
p2
(dp3
s."
EndChar

StartChar: K
Encoding: 43 75 39
Width: 1367
VWidth: 0
Flags: HW
HStem: 0 23G<260 447 992 1244>
VStem: 260 187<0 562 774 1493>
LayerCount: 2
Fore
SplineSet
977 1493 m 5
 1210 1493 l 5
 711 824 l 5
 1244 0 l 5
 1006 0 l 5
 566 701 l 5
 447 562 l 5
 447 0 l 5
 260 0 l 5
 260 1493 l 5
 447 1493 l 5
 447 774 l 5
 977 1493 l 5
EndSplineSet
EndChar

StartChar: L
Encoding: 44 76 40
Width: 1367
VWidth: 0
Flags: HW
HStem: 0 146<548 1115>
VStem: 361 187<146 1493>
LayerCount: 2
Fore
SplineSet
548 146 m 5
 1125 146 l 5
 1115 0 l 5
 361 0 l 5
 361 1493 l 5
 548 1493 l 5
 548 146 l 5
EndSplineSet
EndChar

StartChar: Lslash
Encoding: 216 321 43
Width: 1367
VWidth: 0
Flags: HW
LayerCount: 2
Fore
SplineSet
420 164 m 1
 1130 164 l 1
 1130 0 l 1
 234 0 l 1
 234 640 l 1
 11 532 l 1
 11 681 l 1
 234 789 l 1
 234 1493 l 1
 420 1493 l 1
 420 881 l 1
 831 1081 l 1
 831 932 l 1
 420 732 l 1
 420 164 l 1
EndSplineSet
EndChar

StartChar: M
Encoding: 45 77 44
Width: 1367
VWidth: 0
Flags: HW
HStem: 0 23G<218 404 968 1149>
VStem: 218 186<0 1281> 968 181<0 1281>
LayerCount: 2
Fore
SplineSet
404 1281 m 5
 404 0 l 5
 218 0 l 5
 218 1493 l 5
 473 1493 l 5
 686 793 l 5
 900 1493 l 5
 1149 1493 l 5
 1149 0 l 5
 968 0 l 5
 968 1281 l 5
 791 636 l 5
 582 636 l 5
 404 1281 l 5
EndSplineSet
PickledData: "(dp1
S'com.typemytype.robofont.layerData'
p2
(dp3
s."
EndChar

StartChar: N
Encoding: 46 78 45
Width: 1367
VWidth: 0
Flags: HW
HStem: 0 23G<219 389 918 1148>
VStem: 219 170<0 1207> 981 167<289 1493>
LayerCount: 2
Fore
SplineSet
1148 0 m 1
 928 0 l 1
 389 1207 l 1
 389 0 l 1
 219 0 l 1
 219 1493 l 1
 434 1493 l 1
 981 289 l 1
 981 1493 l 1
 1148 1493 l 1
 1148 0 l 1
EndSplineSet
EndChar

StartChar: O
Encoding: 47 79 49
Width: 1367
VWidth: 0
Flags: HW
HStem: -24 155<560 808> 1365 152<555 813>
VStem: 192 196<381 1114> 979 196<381 1114>
LayerCount: 2
Fore
SplineSet
684 -24 m 4
 345 -24 192 337 192 747 c 4
 192 1124 311 1517 684 1517 c 4
 1057 1517 1175 1124 1175 747 c 4
 1175 337 1023 -24 684 -24 c 4
684 1365 m 4
 487 1365 388 1091 388 746 c 4
 388 401 488 130 684 130 c 4
 880 130 979 401 979 746 c 4
 979 1091 881 1365 684 1365 c 4
EndSplineSet
EndChar

StartChar: OE
Encoding: 227 338 50
Width: 1367
VWidth: 0
Flags: HW
LayerCount: 2
Back
SplineSet
903.19140625 760.81640625 m 5
 903.19140625 162.396484375 l 5
 1258.01660156 162.396484375 l 5
 1241.33203125 0 l 5
 660.708984375 0 l 6
 283.637695312 0 114.567382812 374.846679688 114.567382812 830.891601562 c 4
 114.567382812 1250.23046875 246.931640625 1658.44628906 660.708984375 1658.44628906 c 6
 1221.31054688 1658.44628906 l 5
 1203.51367188 1496.04980469 l 5
 903.19140625 1496.04980469 l 5
 903.19140625 937.672851562 l 5
 1166.80761719 937.672851562 l 5
 1166.80761719 760.81640625 l 5
 903.19140625 760.81640625 l 5
695.190429688 1488.33300781 m 5
 660.708984375 1488.26367188 l 6
 441.584960938 1488.26367188 332.579101562 1213.52441406 332.579101562 829.779296875 c 4
 332.579101562 446.034179688 442.697265625 172.375 660.708984375 172.375 c 6
 695.190429688 172.375 l 5
 695.190429688 1488.33300781 l 5
EndSplineSet
Fore
SplineSet
813 685 m 5
 813 146 l 5
 1132 146 l 5
 1117 0 l 5
 595 0 l 6
 256 0 103 337 103 747 c 4
 103 1124 222 1493 595 1493 c 6
 1099 1493 l 5
 1083 1346 l 5
 813 1346 l 5
 813 844 l 5
 1050 844 l 5
 1050 685 l 5
 813 685 l 5
625 1339 m 5
 595 1339 l 6
 398 1339 299 1091 299 746 c 4
 299 401 399 156 595 156 c 6
 625 156 l 5
 625 1339 l 5
EndSplineSet
EndChar

StartChar: Oslash
Encoding: 151 216 56
Width: 1367
VWidth: 0
Flags: HW
LayerCount: 2
Fore
SplineSet
464 204 m 1
 505 161 556 136 615 136 c 0
 811 136 910 401 910 746 c 0
 910 891 893 1020 859 1123 c 1
 464 204 l 1
281 -222 m 1
 146 -171 l 1
 283 145 l 1
 175 290 123 510 123 747 c 0
 123 1124 242 1517 615 1517 c 0
 705 1517 781 1495 843 1455 c 1
 957 1719 l 1
 1097 1677 l 1
 955 1347 l 1
 1065 1198 1106 969 1106 747 c 0
 1106 337 954 -24 615 -24 c 0
 530 -24 456 -2 394 39 c 1
 281 -222 l 1
615 1357 m 0
 418 1357 319 1091 319 746 c 0
 319 598 339 465 375 360 c 1
 771 1286 l 1
 729 1332 676 1357 615 1357 c 0
EndSplineSet
EndChar

StartChar: P
Encoding: 48 80 58
Width: 1367
VWidth: 0
Flags: HW
HStem: 0 23G<279 466> 616 149<466 877> 1346 147<466 876>
VStem: 279 187<0 616 765 1346> 999 181<886 1233>
LayerCount: 2
Fore
SplineSet
1180 1063 m 4
 1180 704 937 616 621 616 c 6
 466 616 l 5
 466 0 l 5
 279 0 l 5
 279 1493 l 5
 622 1493 l 6
 931 1493 1180 1388 1180 1063 c 4
466 765 m 5
 685 765 l 6
 869 765 999 862 999 1054 c 4
 999 1260 866 1346 685 1346 c 6
 466 1346 l 5
 466 765 l 5
EndSplineSet
PickledData: "(dp1
S'com.typemytype.robofont.layerData'
p2
(dp3
s."
EndChar

StartChar: Q
Encoding: 49 81 59
Width: 1367
VWidth: 0
Flags: HW
LayerCount: 2
Fore
SplineSet
684 -24 m 0
 345 -24 192 337 192 747 c 0
 192 1124 311 1517 684 1517 c 0
 1057 1517 1175 1124 1175 747 c 0
 1175 422 1080 129 873 20 c 1
 941 -117 1039 -232 1149 -330 c 1
 1024 -458 l 1
 895 -333 782 -191 697 -24 c 1
 693 -24 688 -24 684 -24 c 0
684 1365 m 0
 487 1365 388 1091 388 746 c 0
 388 401 488 130 684 130 c 0
 880 130 979 401 979 746 c 0
 979 1091 881 1365 684 1365 c 0
EndSplineSet
EndChar

StartChar: R
Encoding: 50 82 60
Width: 1367
VWidth: 0
Flags: HW
HStem: 697 139<731 786> 1346 147<683 927>
VStem: 1004 181<916 1273>
LayerCount: 2
Back
SplineSet
1116.75390625 1094.5078125 m 4
 1116.75390625 1440.43457031 833.116210938 1492.71289062 488.301757812 1492.71289062 c 6
 185.754882812 1492.71289062 l 5
 185.754882812 0 l 5
 373.734375 0 l 5
 373.734375 662.93359375 l 5
 460.494140625 662.93359375 l 6
 514.997070312 662.93359375 656.259765625 665.158203125 656.259765625 665.158203125 c 5
 973.266601562 0 l 5
 1177.93066406 0 l 5
 838.677734375 712.987304688 l 5
 996.625 768.602539062 1116.75390625 874.271484375 1116.75390625 1094.5078125 c 4
567.275390625 825.330078125 m 6
 373.734375 825.330078125 l 5
 373.734375 1345.88867188 l 5
 563.938476562 1345.88867188 l 6
 770.827148438 1345.88867188 928.774414062 1286.93652344 928.774414062 1098.95703125 c 4
 928.774414062 888.731445312 778.61328125 825.330078125 567.275390625 825.330078125 c 6
EndSplineSet
Fore
SplineSet
1186 1095 m 4
 1186 1385 1045 1493 685 1493 c 6
 238 1493 l 5
 238 0 l 5
 426 0 l 5
 426 697 l 5
 786 700 l 5
 1026 0 l 5
 1221 0 l 5
 958 741 l 5
 1077 787 1186 875 1186 1095 c 4
731 836 m 6
 426 836 l 5
 426 1346 l 5
 683 1346 l 6
 934 1346 1004 1287 1004 1099 c 4
 1004 889 898 836 731 836 c 6
EndSplineSet
PickledData: "(dp1
S'com.typemytype.robofont.layerData'
p2
(dp3
s."
EndChar

StartChar: S
Encoding: 51 83 63
Width: 1367
VWidth: 0
Flags: HW
HStem: -24 155<447 830> 1366 152<531 931>
VStem: 239 207<1001 1279> 933 211<232 549>
LayerCount: 2
Fore
SplineSet
320 249 m 1
 402 194 514 130 670 130 c 0
 832 130 933 233 933 399 c 0
 933 600 765 639 586 719 c 0
 414 796 239 880 239 1125 c 0
 239 1382 444 1518 701 1518 c 0
 868 1518 997 1473 1093 1397 c 1
 1003 1276 l 1
 936 1325 824 1366 711 1366 c 0
 551 1366 446 1286 446 1129 c 0
 446 962 614 922 795 834 c 0
 964 752 1145 660 1145 416 c 0
 1145 122 960 -24 679 -24 c 0
 498 -24 339 35 222 113 c 1
 320 249 l 1
EndSplineSet
PickledData: "(dp1
S'com.typemytype.robofont.layerData'
p2
(dp3
s."
EndChar

StartChar: T
Encoding: 52 84 67
Width: 1367
VWidth: 0
Flags: HW
LayerCount: 2
Fore
SplineSet
1201 1493 m 1
 1201 1346 l 1
 776 1346 l 1
 776 0 l 1
 590 0 l 1
 590 1346 l 1
 166 1346 l 1
 166 1493 l 1
 1201 1493 l 1
EndSplineSet
EndChar

StartChar: Thorn
Encoding: 157 222 69
Width: 1367
VWidth: 0
Flags: HW
LayerCount: 2
Fore
SplineSet
1102 818 m 4
 1102 462 896 347 448 347 c 5
 448 0 l 5
 258 0 l 5
 258 1583 l 5
 448 1583 l 5
 448 1291 l 5
 914 1291 1102 1154 1102 818 c 4
928 819 m 4
 928 1095 723 1131 448 1131 c 5
 448 509 l 5
 727 509 928 542 928 819 c 4
EndSplineSet
EndChar

StartChar: U
Encoding: 53 85 70
Width: 1367
VWidth: 0
Flags: HW
LayerCount: 2
Fore
SplineSet
684 -24 m 0
 340 -24 198 129 198 485 c 2
 198 1493 l 1
 385 1493 l 1
 385 491 l 2
 385 254 444 130 684 130 c 0
 924 130 982 254 982 491 c 2
 982 1493 l 1
 1169 1493 l 1
 1169 485 l 2
 1169 129 1028 -24 684 -24 c 0
EndSplineSet
EndChar

StartChar: V
Encoding: 54 86 77
Width: 1367
VWidth: 0
Flags: HW
LayerCount: 2
Fore
SplineSet
1036 1493 m 1
 1242 1493 l 1
 791 0 l 1
 573 0 l 1
 125 1493 l 1
 331 1493 l 1
 686 224 l 1
 1036 1493 l 1
EndSplineSet
EndChar

StartChar: W
Encoding: 55 87 78
Width: 1367
VWidth: 0
Flags: HW
LayerCount: 2
Fore
SplineSet
938 191 m 1
 1033 1493 l 1
 1209 1493 l 1
 1073 0 l 1
 858 0 l 1
 684 700 l 1
 501 0 l 1
 291 0 l 1
 158 1493 l 1
 333 1493 l 1
 426 191 l 1
 581 845 l 1
 790 845 l 1
 938 191 l 1
EndSplineSet
PickledData: "(dp1
S'com.typemytype.robofont.layerData'
p2
(dp3
S'b'
(dp4
S'name'
p5
S'W'
sS'lib'
p6
(dp7
sS'unicodes'
p8
(tsS'width'
p9
I1230
sS'contours'
p10
((dp11
S'points'
p12
((dp13
S'segmentType'
p14
S'line'
p15
sS'x'
F906
sS'smooth'
p16
I00
sS'y'
F210
s(dp17
g14
S'line'
p18
sS'x'
F972
sg16
I00
sS'y'
F1491
s(dp19
g14
S'line'
p20
sS'x'
F1157
sg16
I00
sS'y'
F1491
s(dp21
g14
S'line'
p22
sS'x'
F1040
sg16
I00
sS'y'
F0
s(dp23
g14
S'line'
p24
sS'x'
F811
sg16
I00
sS'y'
F0
s(dp25
g14
S'line'
p26
sS'x'
F627
sg16
I00
sS'y'
F659
s(dp27
g14
S'line'
p28
sS'x'
F431
sg16
I00
sS'y'
F0
s(dp29
g14
S'line'
p30
sS'x'
F205
sg16
I00
sS'y'
F0
s(dp31
g14
S'line'
p32
sS'x'
F67
sg16
I00
sS'y'
F1491
s(dp33
g14
S'line'
p34
sS'x'
F252
sg16
I00
sS'y'
F1491
s(dp35
g14
S'line'
p36
sS'x'
F356
sg16
I00
sS'y'
F213
s(dp37
g14
S'line'
p38
sS'x'
F543
sg16
I00
sS'y'
F880
s(dp39
g14
S'line'
p40
sS'x'
F716
sg16
I00
sS'y'
F880
stp41
stp42
sS'components'
p43
(tsS'anchors'
p44
(tsss."
EndChar

StartChar: X
Encoding: 56 88 79
Width: 1367
VWidth: 0
Flags: HW
LayerCount: 2
Fore
SplineSet
249 1493 m 1
 471 1493 l 1
 700 893 l 1
 953 1493 l 1
 1150 1493 l 1
 820 764 l 1
 1158 0 l 1
 945 0 l 1
 685 627 l 1
 418 0 l 1
 209 0 l 1
 568 763 l 1
 249 1493 l 1
EndSplineSet
PickledData: "(dp1
S'com.typemytype.robofont.layerData'
p2
(dp3
s."
EndChar

StartChar: Y
Encoding: 57 89 80
Width: 1367
VWidth: 0
Flags: HW
LayerCount: 2
Fore
SplineSet
771 0 m 5
 585 0 l 5
 585 594 l 5
 137 1493 l 5
 344 1493 l 5
 679 775 l 5
 1018 1493 l 5
 1230 1493 l 5
 771 594 l 5
 771 0 l 5
EndSplineSet
EndChar

StartChar: Z
Encoding: 58 90 83
Width: 1367
VWidth: 0
Flags: HW
HStem: 0 146<477 1110> 1346 147<291 884>
LayerCount: 2
Fore
SplineSet
477 146 m 5
 1110 146 l 5
 1110 0 l 5
 256 0 l 5
 256 143 l 5
 884 1346 l 5
 291 1346 l 5
 291 1493 l 5
 1119 1493 l 5
 1119 1366 l 5
 477 146 l 5
EndSplineSet
EndChar

StartChar: a
Encoding: 65 97 86
Width: 1367
VWidth: 0
Flags: HW
HStem: -24 131<445 769> 0 23G<916 1069> 514 119<504 890> 987 143<358 808>
VStem: 222 176<150 422> 890 179<199 515 632 907> 921 148<0 78>
LayerCount: 2
Back
SplineSet
484.96484375 -24.470703125 m 4xba
 305.883789062 -24.470703125 166.845703125 93.43359375 166.845703125 280.30078125 c 4
 166.845703125 552.815429688 398.358398438 635.141601562 689.62890625 632.901367188 c 6
 834.228515625 631.7890625 l 5
 834.228515625 756.3671875 l 6
 834.228515625 923.212890625 767.490234375 992.17578125 619.553710938 992.17578125 c 4
 514.997070312 992.17578125 331.466796875 946.571289062 275.8515625 922.100585938 c 5
 234.696289062 1062.25097656 l 5
 331.466796875 1095.62011719 457.157226562 1131.21386719 616.216796875 1131.21386719 c 4
 840.90234375 1131.21386719 1013.30957031 1035.55566406 1013.30957031 791.9609375 c 6xbc
 1013.30957031 0 l 5
 865.373046875 0 l 5x7a
 840.90234375 126.802734375 l 5
 758.591796875 42.267578125 613.9921875 -24.470703125 484.96484375 -24.470703125 c 4xba
834.228515625 244.70703125 m 5
 834.228515625 514.997070312 l 5
 686.291992188 513.884765625 l 6
 526.755859375 512.685546875 342.58984375 460.494140625 342.58984375 289.19921875 c 4
 342.58984375 179.081054688 409.328125 107.893554688 519.446289062 107.893554688 c 4
 641.799804688 107.893554688 753.030273438 160.171875 834.228515625 244.70703125 c 5
EndSplineSet
Fore
SplineSet
222 280 m 4xba
 222 549 427 633 713 633 c 6
 890 632 l 5
 890 725 l 6
 890 917 795 987 640 987 c 4
 554 987 449 966 331 931 c 5
 290 1062 l 5
 408 1103 536 1130 654 1130 c 4
 881 1130 1069 1031 1069 747 c 6xbc
 1069 0 l 5
 921 0 l 5x7a
 897 119 l 5
 832 28 698 -24 567 -24 c 4
 393 -24 222 67 222 280 c 4xba
890 249 m 5
 890 515 l 5
 721 514 l 6
 561 513 398 460 398 289 c 4
 398 154 480 106 578 106 c 4
 697 106 840 177 890 249 c 5
EndSplineSet
PickledData: "(dp1
S'com.typemytype.robofont.layerData'
p2
(dp3
s."
EndChar

StartChar: acute
Encoding: 115 180 90
Width: 1367
VWidth: 0
Flags: HW
LayerCount: 2
Fore
SplineSet
418 1269 m 1
 680 1706 l 1
 912 1706 l 1
 561 1269 l 1
 418 1269 l 1
EndSplineSet
EndChar

StartChar: ae
Encoding: 165 230 92
Width: 1367
VWidth: 0
Flags: HW
LayerCount: 2
Back
SplineSet
1245.78125 726.334960938 m 5
 1234.65820312 913.202148438 1179.04296875 1101.18164062 983.27734375 1101.18164062 c 4
 763.041015625 1101.18164062 695.190429688 924.325195312 672.944335938 726.334960938 c 5
 1245.78125 726.334960938 l 5
461.606445312 617.329101562 m 4
 461.606445312 965.48046875 642.912109375 1258.01660156 956.58203125 1258.01660156 c 4
 1288.04882812 1258.01660156 1439.32226562 978.828125 1439.32226562 646.249023438 c 6
 1439.32226562 578.3984375 l 5
 666.270507812 578.3984375 l 5
 676.28125 337.028320312 780.837890625 127.915039062 1026.65722656 127.915039062 c 4
 1156.796875 127.915039062 1243.55664062 166.845703125 1325.8671875 235.80859375 c 5
 1414.8515625 123.465820312 l 5
 1323.64257812 37.818359375 1210.1875 -27.8076171875 1019.98339844 -27.8076171875 c 4
 651.810546875 -27.8076171875 461.606445312 249.15625 461.606445312 617.329101562 c 4
EndSplineSet
Fore
SplineSet
1149 48 m 1
 1086 1 1008 -23 928 -23 c 0
 826 -23 721 18 645 105 c 1
 579 39 469 -24 344 -24 c 0
 194 -24 56 92 56 280 c 0
 56 569 279 597 537 607 c 1
 537 786 l 2
 537 912 479 991 364 991 c 0
 281 991 195 968 145 947 c 1
 101 1074 l 1
 177 1106 278 1131 378 1131 c 0
 497 1131 606 1084 636 935 c 1
 686 1074 786 1131 881 1131 c 0
 1071 1131 1171 904 1171 605 c 1
 1169 521 l 1
 704 501 l 1
 713 265 767 108 927 108 c 0
 974 108 1031 122 1099 151 c 1
 1149 48 l 1
353 116 m 0
 453 116 518 169 594 210 c 1
 568 280 552 407 544 497 c 1
 376 481 208 482 208 295 c 0
 208 192 268 116 353 116 c 0
1027 634 m 1
 1018 802 984 991 881 991 c 0
 770 991 719 788 710 617 c 1
 1027 634 l 1
EndSplineSet
EndChar

StartChar: ampersand
Encoding: 6 38 94
Width: 1367
VWidth: 0
Flags: HW
LayerCount: 2
Fore
SplineSet
346 882 m 1
 346 882 152 1101 152 1277 c 0
 152 1491 319 1596 516 1596 c 0
 721 1596 892 1487 892 1271 c 0
 892 1049 726 924 575 839 c 1
 914 375 l 1
 967 438 1024 583 1040 627 c 1
 1199 570 l 1
 1165 490 1079 301 1017 236 c 1
 1139 76 l 1
 1009 -24 l 1
 905 121 l 1
 819 39 681 -24 532 -24 c 0
 252 -24 68 129 68 414 c 0
 68 642 200 785 346 882 c 1
555 143 m 0
 667 143 740 194 805 259 c 1
 449 746 l 1
 358 677 277 571 277 419 c 0
 277 243 381 143 555 143 c 0
690 1261 m 0
 690 1370 623 1446 531 1446 c 0
 429 1446 349 1380 349 1290 c 0
 349 1204 400 1090 495 962 c 1
 604 1023 690 1103 690 1261 c 0
EndSplineSet
EndChar

StartChar: asciicircum
Encoding: 62 94 97
Width: 1367
VWidth: 0
Flags: HW
LayerCount: 2
Fore
SplineSet
645 1556 m 1
 757 1556 l 1
 1297 597 l 1
 1126 597 l 1
 699 1369 l 1
 285 597 l 1
 111 597 l 1
 645 1556 l 1
EndSplineSet
EndChar

StartChar: asciitilde
Encoding: 94 126 98
Width: 1367
VWidth: 0
Flags: HW
LayerCount: 2
Fore
SplineSet
90 845 m 1
 120 995 187 1152 376 1152 c 0
 593 1152 737 960 839 960 c 0
 924 960 943 1078 957 1151 c 1
 1141 1109 l 1
 1105 942 1072 781 860 781 c 0
 649 781 491 975 393 975 c 0
 308 975 284 861 273 785 c 1
 90 845 l 1
EndSplineSet
EndChar

StartChar: asterisk
Encoding: 10 42 99
Width: 1367
VWidth: 0
Flags: HW
LayerCount: 2
Fore
SplineSet
1047 375 m 1
 866 270 l 1
 613 674 l 1
 364 270 l 1
 181 375 l 1
 499 753 l 1
 56 900 l 1
 148 1080 l 1
 551 866 l 1
 516 1331 l 1
 712 1331 l 1
 682 866 l 1
 1081 1080 l 1
 1175 900 l 1
 729 753 l 1
 1047 375 l 1
EndSplineSet
EndChar

StartChar: at
Encoding: 32 64 100
Width: 1367
VWidth: 0
Flags: HW
LayerCount: 2
Fore
SplineSet
922 524 m 0
 922 468 950 386 1000 386 c 0
 1107 386 1145 770 1145 905 c 0
 1145 1202 996 1442 725 1442 c 0
 359 1442 194 1067 194 642 c 0
 194 283 367 1 693 1 c 0
 869 1 1007 78 1117 174 c 1
 1165 117 l 1
 1045 1 888 -88 682 -88 c 0
 254 -88 80 309 80 644 c 0
 80 1156 357 1517 706 1517 c 0
 1080 1517 1238 1236 1238 911 c 0
 1238 666 1178 305 990 305 c 0
 885 305 834 394 823 505 c 1
 775 343 670 296 603 296 c 0
 433 296 377 473 377 651 c 0
 377 887 495 1131 670 1131 c 0
 761 1131 815 1043 843 971 c 1
 864 1098 l 1
 979 1098 l 2
 978 1098 922 732 922 524 c 0
814 746 m 0
 814 882 796 1030 680 1030 c 0
 534 1030 494 752 494 621 c 0
 494 512 515 395 628 395 c 0
 758 395 814 626 814 746 c 0
EndSplineSet
EndChar

StartChar: b
Encoding: 66 98 102
Width: 1367
VWidth: 0
Flags: HW
HStem: -24 140<525 843> 0 23G<216 383> 991 140<528 849>
VStem: 216 182<263 857 947 1546> 216 165<0 135> 977 184<274 850>
LayerCount: 2
Fore
SplineSet
398 947 m 5x74
 459 1047 550 1131 726 1131 c 4
 1035 1131 1160 879 1160 568 c 4
 1160 248 1034 -24 715 -24 c 4
 546 -24 475 49 398 150 c 5xb4
 380 0 l 5
 216 0 l 5x6c
 216 1546 l 5
 398 1566 l 5
 398 947 l 5x74
398 556 m 4
 398 320 452 116 693 116 c 4
 923 116 977 341 977 556 c 4
 977 781 931 991 693 991 c 4
 444 991 398 798 398 556 c 4
EndSplineSet
EndChar

StartChar: backslash
Encoding: 60 92 103
Width: 1367
VWidth: 0
Flags: HW
LayerCount: 2
Fore
SplineSet
1083 -48 m 1
 903 -48 l 1
 194 1763 l 1
 377 1763 l 1
 1083 -48 l 1
EndSplineSet
EndChar

StartChar: bar
Encoding: 92 124 104
Width: 1367
VWidth: 0
Flags: HW
LayerCount: 2
Fore
SplineSet
531 -442 m 1
 531 1586 l 1
 692 1586 l 1
 692 -442 l 1
 531 -442 l 1
EndSplineSet
EndChar

StartChar: braceleft
Encoding: 91 123 105
Width: 1367
VWidth: 0
Flags: HW
LayerCount: 2
Fore
SplineSet
515 456 m 2
 515 621 386 700 225 710 c 1
 225 845 l 1
 386 855 515 933 515 1098 c 2
 515 1331 l 2
 515 1588 608 1707 871 1707 c 2
 874 1707 l 1
 1102 1706 l 1
 1102 1571 l 1
 874 1571 l 2
 744 1571 736 1461 736 1331 c 2
 736 1090 l 2
 736 891 640 834 491 776 c 1
 640 718 736 664 736 465 c 2
 736 224 l 2
 736 94 744 -17 874 -17 c 2
 1102 -17 l 1
 1102 -152 l 1
 874 -153 l 1
 871 -153 l 2
 608 -153 515 -33 515 224 c 2
 515 456 l 2
EndSplineSet
EndChar

StartChar: braceright
Encoding: 93 125 106
Width: 1367
VWidth: 0
Flags: HW
LayerCount: 2
Fore
SplineSet
791 1098 m 2
 791 933 919 855 1080 845 c 1
 1080 710 l 1
 919 700 791 621 791 456 c 2
 791 224 l 2
 791 -33 696 -153 435 -153 c 2
 432 -153 l 1
 202 -152 l 1
 202 -17 l 1
 432 -17 l 2
 562 -17 568 94 568 224 c 2
 568 465 l 2
 568 664 665 718 814 776 c 1
 665 834 568 891 568 1090 c 2
 568 1331 l 2
 568 1461 562 1571 432 1571 c 2
 202 1571 l 1
 202 1706 l 1
 432 1707 l 1
 435 1707 l 2
 696 1707 791 1588 791 1331 c 2
 791 1098 l 2
EndSplineSet
EndChar

StartChar: bracketleft
Encoding: 59 91 107
Width: 1367
VWidth: 0
Flags: HW
LayerCount: 2
Fore
SplineSet
396 -131 m 1
 396 1726 l 1
 397 1729 397 1731 400 1732 c 1
 915 1732 l 1
 918 1731 919 1729 920 1726 c 1
 920 1595 l 1
 919 1592 918 1590 915 1589 c 1
 585 1589 l 1
 585 6 l 1
 917 6 l 1
 920 5 920 4 921 1 c 1
 921 -131 l 1
 920 -134 920 -135 917 -136 c 1
 400 -136 l 1
 397 -135 397 -134 396 -131 c 1
EndSplineSet
EndChar

StartChar: bracketright
Encoding: 61 93 108
Width: 1367
VWidth: 0
Flags: HW
LayerCount: 2
Fore
SplineSet
776 -131 m 1
 775 -134 774 -135 771 -136 c 1
 256 -136 l 1
 253 -135 251 -134 250 -131 c 1
 250 1 l 1
 251 4 253 5 256 6 c 1
 586 6 l 1
 586 1589 l 1
 256 1589 l 1
 253 1590 252 1592 251 1595 c 1
 251 1726 l 1
 252 1729 253 1731 256 1732 c 1
 771 1732 l 1
 774 1731 775 1729 776 1726 c 1
 776 -131 l 1
EndSplineSet
EndChar

StartChar: breve
Encoding: 257 728 109
Width: 1367
VWidth: 0
Flags: HW
LayerCount: 2
Fore
SplineSet
452 1581 m 1
 470 1484 506 1439 621 1439 c 0
 736 1439 780 1490 804 1581 c 5
 901 1581 l 5
 889 1411 814 1325 630 1325 c 0
 442 1325 370 1406 354 1581 c 1
 452 1581 l 1
EndSplineSet
EndChar

StartChar: brokenbar
Encoding: 101 166 110
Width: 1367
VWidth: 0
Flags: HW
LayerCount: 2
Fore
SplineSet
539 427 m 1
 712 427 l 1
 712 -534 l 1
 539 -534 l 1
 539 427 l 1
539 1678 m 1
 712 1678 l 1
 712 736 l 1
 539 736 l 1
 539 1678 l 1
EndSplineSet
EndChar

StartChar: bullet
Encoding: 271 8226 111
Width: 1367
VWidth: 0
Flags: HW
LayerCount: 2
Fore
SplineSet
989 761 m 0
 989 556 817 418 612 418 c 0
 387 418 241 588 241 754 c 0
 241 982 467 1097 620 1097 c 0
 845 1097 989 926 989 761 c 0
EndSplineSet
EndChar

StartChar: c
Encoding: 67 99 112
Width: 1367
VWidth: 0
Flags: HW
LayerCount: 2
Fore
SplineSet
1039 72 m 5
 967 5 848 -24 739 -24 c 4
 398 -24 207 250 207 556 c 4
 207 860 408 1131 735 1131 c 4
 863 1131 970 1089 1031 1037 c 5
 955 925 l 5
 908 957 845 991 739 991 c 4
 531 991 392 807 392 552 c 4
 392 301 525 116 746 116 c 4
 845 116 904 142 965 185 c 5
 1039 72 l 5
EndSplineSet
PickledData: "(dp1
S'com.typemytype.robofont.layerData'
p2
(dp3
s."
EndChar

StartChar: caron
Encoding: 256 711 114
Width: 1367
VWidth: 0
Flags: HW
LayerCount: 2
Fore
SplineSet
445 1616 m 1
 633 1380 l 1
 823 1616 l 1
 994 1616 l 1
 721 1267 l 1
 556 1267 l 1
 284 1616 l 1
 445 1616 l 1
EndSplineSet
EndChar

StartChar: cedilla
Encoding: 119 184 117
Width: 1367
VWidth: 0
Flags: HW
LayerCount: 2
Fore
SplineSet
732 -261 m 0
 732 -199 673 -184 610 -184 c 0
 582 -184 562 -186 535 -188 c 1
 570 19 l 1
 677 19 l 1
 657 -98 l 1
 666 -97 l 1
 787 -97 889 -139 889 -260 c 0
 889 -396 753 -428 617 -428 c 0
 548 -428 487 -417 428 -405 c 1
 437 -314 l 1
 488 -326 546 -339 605 -339 c 0
 670 -339 732 -326 732 -261 c 0
EndSplineSet
EndChar

StartChar: cent
Encoding: 97 162 118
Width: 1367
VWidth: 0
Flags: HW
LayerCount: 2
Fore
SplineSet
645 125 m 5
 645 982 l 5
 485 942 378 773 378 552 c 4
 378 336 477 167 645 125 c 5
774 -277 m 5
 645 -277 l 5
 645 -20 l 5
 354 19 195 275 195 556 c 4
 195 835 362 1087 645 1126 c 5
 645 1369 l 5
 774 1369 l 5
 774 1129 l 5
 879 1121 968 1088 1021 1037 c 5
 975 914 l 5
 909 958 841 980 774 988 c 5
 774 117 l 5
 856 125 928 159 980 196 c 5
 1024 72 l 5
 963 15 869 -15 774 -23 c 5
 774 -277 l 5
EndSplineSet
EndChar

StartChar: circumflex
Encoding: 255 710 119
Width: 1367
VWidth: 0
Flags: HW
LayerCount: 2
Fore
SplineSet
710 1617 m 1
 969 1267 l 1
 825 1267 l 1
 622 1503 l 1
 419 1267 l 1
 284 1267 l 1
 543 1617 l 1
 710 1617 l 1
EndSplineSet
EndChar

StartChar: colon
Encoding: 26 58 120
Width: 1367
VWidth: 0
Flags: HW
LayerCount: 2
Fore
SplineSet
769 841 m 1
 493 841 l 1
 493 1121 l 1
 769 1121 l 1
 769 841 l 1
769 156 m 1
 493 156 l 1
 493 436 l 1
 769 436 l 1
 769 156 l 1
EndSplineSet
PickledData: "(dp1
S'com.typemytype.robofont.layerData'
p2
(dp3
s."
EndChar

StartChar: comma
Encoding: 12 44 121
Width: 1367
VWidth: 0
Flags: HW
LayerCount: 2
Fore
SplineSet
459 -321 m 5
 511 286 l 5
 749 286 l 1
 563 -321 l 1
 459 -321 l 5
EndSplineSet
EndChar

StartChar: copyright
Encoding: 104 169 122
Width: 1367
VWidth: 0
Flags: HW
LayerCount: 2
Fore
SplineSet
1241 939 m 1
 1241 591 966 365 618 365 c 0
 267 365 -11 593 -11 940 c 0
 -11 1287 267 1516 614 1516 c 0
 963 1516 1240 1284 1240 939 c 1
 1241 939 l 1
613 1426 m 0
 307 1426 87 1218 87 958 c 0
 87 633 343 453 598 453 c 0
 928 453 1141 664 1141 939 c 0
 1141 1264 858 1426 613 1426 c 0
850 1137 m 1
 800 1180 730 1210 642 1210 c 0
 484 1210 383 1101 383 945 c 1
 385 945 l 1
 385 784 490 677 652 677 c 0
 732 677 798 698 845 737 c 1
 876 645 l 1
 814 602 735 576 637 576 c 0
 401 576 265 757 265 943 c 0
 265 1181 449 1306 646 1306 c 0
 743 1306 817 1275 874 1228 c 1
 850 1137 l 1
EndSplineSet
EndChar

StartChar: currency
Encoding: 99 164 123
Width: 1367
VWidth: 0
Flags: HW
LayerCount: 2
Fore
SplineSet
273 942 m 0
 273 752 427 596 617 596 c 0
 807 596 963 752 963 942 c 0
 963 1132 807 1287 617 1287 c 0
 427 1287 273 1132 273 942 c 0
325 1266 m 1
 402 1336 505 1377 617 1377 c 0
 732 1377 835 1334 913 1262 c 1
 1150 1482 l 1
 1196 1426 l 1
 961 1209 l 1
 1018 1134 1053 1042 1053 942 c 0
 1053 842 1019 751 962 676 c 1
 1196 459 l 1
 1150 404 l 1
 913 623 l 1
 835 551 732 506 617 506 c 0
 504 506 402 550 325 620 c 1
 91 404 l 1
 38 455 l 1
 276 673 l 1
 218 748 182 841 182 942 c 0
 182 1044 218 1136 276 1211 c 1
 38 1430 l 1
 91 1482 l 1
 325 1266 l 1
EndSplineSet
EndChar

StartChar: d
Encoding: 68 100 124
Width: 1367
VWidth: 0
Flags: HW
HStem: -24 140<439 733> 0 21G<893 1061> 991 140<434 752> 1546 20G<879 1061>
VStem: 121 184<277 833> 879 182<281 841 947 1546> 895 166<0 152>
LayerCount: 2
Fore
SplineSet
964 947 m 5xbc
 964 1546 l 5xbc
 1147 1566 l 5
 1147 0 l 5
 981 0 l 5x7a
 964 170 l 5
 917 89 820 -24 651 -24 c 4
 332 -24 207 238 207 558 c 4
 207 869 342 1131 651 1131 c 4
 827 1131 923 1047 964 947 c 5xbc
964 556 m 4
 964 798 921 991 672 991 c 4
 434 991 390 770 390 545 c 4
 390 330 442 116 672 116 c 4
 913 116 964 347 964 556 c 4
EndSplineSet
EndChar

StartChar: dagger
Encoding: 269 8224 125
Width: 1367
VWidth: 0
Flags: HW
LayerCount: 2
Fore
SplineSet
240 1016 m 1
 240 1159 l 1
 602 1159 l 1
 602 1577 l 1
 759 1577 l 1
 759 1159 l 1
 1140 1159 l 1
 1140 1016 l 1
 744 1016 l 1
 744 123 l 1
 602 123 l 1
 602 1016 l 1
 240 1016 l 1
EndSplineSet
EndChar

StartChar: daggerdbl
Encoding: 270 8225 126
Width: 1367
VWidth: 0
Flags: HW
LayerCount: 2
Fore
SplineSet
169 1068 m 1
 169 1212 l 1
 535 1212 l 1
 535 1577 l 1
 693 1577 l 1
 693 1212 l 1
 1069 1212 l 1
 1069 1068 l 1
 693 1068 l 1
 693 611 l 1
 1061 611 l 1
 1061 473 l 1
 693 473 l 1
 693 123 l 1
 535 123 l 1
 535 473 l 1
 161 473 l 1
 161 611 l 1
 535 611 l 1
 535 1068 l 1
 169 1068 l 1
EndSplineSet
EndChar

StartChar: dcroat
Encoding: 202 273 128
Width: 1367
VWidth: 0
Flags: HW
LayerCount: 2
Fore
SplineSet
879 556 m 0
 879 798 835 991 586 991 c 0
 348 991 305 770 305 545 c 0
 305 330 356 116 586 116 c 0
 827 116 879 347 879 556 c 0
1061 1404 m 1
 1226 1404 l 1
 1226 1269 l 1
 1061 1269 l 1
 1061 0 l 1
 879 0 l 1
 879 170 l 1
 832 89 734 -24 565 -24 c 0
 246 -24 121 238 121 558 c 0
 121 869 256 1131 565 1131 c 0
 741 1131 838 1047 879 947 c 1
 879 1269 l 1
 516 1269 l 1
 516 1404 l 1
 879 1404 l 1
 879 1546 l 1
 1061 1566 l 1
 1061 1404 l 1
EndSplineSet
EndChar

StartChar: degree
Encoding: 111 176 129
Width: 1367
VWidth: 0
Flags: HW
LayerCount: 2
Fore
SplineSet
616 1056 m 0
 733 1056 831 1135 831 1251 c 0
 831 1367 732 1444 616 1444 c 0
 500 1444 400 1367 400 1251 c 0
 400 1135 499 1056 616 1056 c 0
969 1249 m 0
 969 1061 803 930 616 930 c 0
 402 930 261 1097 261 1249 c 0
 261 1438 427 1568 616 1568 c 0
 828 1568 969 1406 969 1249 c 0
EndSplineSet
EndChar

StartChar: dieresis
Encoding: 103 168 130
Width: 1367
VWidth: 0
Flags: HW
LayerCount: 2
Fore
SplineSet
306 1459 m 1
 491 1459 l 1
 491 1276 l 1
 306 1276 l 1
 306 1459 l 1
741 1276 m 1
 741 1459 l 1
 923 1459 l 1
 923 1276 l 1
 741 1276 l 1
EndSplineSet
EndChar

StartChar: divide
Encoding: 182 247 131
Width: 1367
VWidth: 0
Flags: HW
LayerCount: 2
Fore
SplineSet
136 677 m 5
 1096 677 l 5
 1096 526 l 5
 136 526 l 5
 136 677 l 5
503 22 m 1
 503 251 l 1
 742 251 l 1
 742 22 l 1
 503 22 l 1
503 949 m 1
 503 1177 l 1
 742 1177 l 1
 742 949 l 1
 503 949 l 1
EndSplineSet
EndChar

StartChar: dollar
Encoding: 4 36 132
Width: 1367
VWidth: 0
Flags: HW
LayerCount: 2
Fore
SplineSet
666 646 m 1
 666 138 l 1
 782 166 844 266 844 405 c 0
 844 532 762 598 666 646 c 1
574 887 m 1
 574 1363 l 1
 441 1347 357 1259 357 1122 c 0
 357 994 465 931 574 887 c 1
574 687 m 1
 375 766 150 847 150 1125 c 0
 150 1372 332 1506 574 1517 c 1
 574 1754 l 1
 666 1754 l 1
 666 1517 l 1
 804 1509 915 1472 998 1407 c 1
 928 1264 l 1
 862 1316 771 1353 666 1363 c 1
 666 851 l 1
 854 776 1056 673 1056 416 c 0
 1056 151 903 3 666 -21 c 1
 666 -218 l 1
 574 -218 l 1
 574 -24 l 1
 399 -22 256 19 141 95 c 1
 212 261 l 1
 301 188 427 134 574 130 c 1
 574 687 l 1
EndSplineSet
EndChar

StartChar: dotaccent
Encoding: 258 729 133
Width: 1367
VWidth: 0
Flags: HW
LayerCount: 2
Fore
SplineSet
508 1531 m 1
 685 1531 l 1
 685 1354 l 1
 508 1354 l 1
 508 1531 l 1
EndSplineSet
EndChar

StartChar: dotlessi
Encoding: 210 305 134
Width: 1367
VWidth: 0
Flags: HW
LayerCount: 2
Fore
SplineSet
266 954 m 1
 266 1098 l 1
 789 1098 l 1
 789 145 l 1
 1186 145 l 1
 1186 0 l 1
 197 0 l 1
 197 145 l 1
 606 145 l 1
 606 954 l 1
 266 954 l 1
EndSplineSet
EndChar

StartChar: e
Encoding: 69 101 135
Width: 1367
VWidth: 0
Flags: HW
HStem: -24 140<549 901> 521 133<392 907> 991 141<523 800>
VStem: 201 185<313 521 654 815>
LayerCount: 2
Fore
SplineSet
912 654 m 5
 902 822 852 991 676 991 c 4
 478 991 417 832 397 654 c 5
 912 654 l 5
207 556 m 4
 207 870 369 1132 652 1132 c 4
 950 1132 1087 881 1087 582 c 6
 1087 521 l 5
 390 521 l 5
 399 304 494 116 715 116 c 4
 832 116 909 150 984 212 c 5
 1064 111 l 5
 982 34 881 -24 710 -24 c 4
 379 -24 207 225 207 556 c 4
EndSplineSet
PickledData: "(dp1
S'com.typemytype.robofont.layerData'
p2
(dp3
s."
EndChar

StartChar: eight
Encoding: 24 56 141
Width: 1367
VWidth: 0
Flags: HW
LayerCount: 2
Fore
SplineSet
396 378 m 0
 396 223 477 130 626 130 c 0
 776 130 858 222 858 378 c 0
 858 554 759 639 626 679 c 1
 494 639 396 554 396 378 c 0
1071 406 m 0
 1071 130 900 -24 626 -24 c 0
 352 -24 181 130 181 406 c 0
 181 612 332 731 492 779 c 1
 335 835 211 943 211 1143 c 0
 211 1381 391 1517 626 1517 c 0
 861 1517 1043 1381 1043 1143 c 0
 1043 944 920 835 763 779 c 1
 923 731 1071 611 1071 406 c 0
850 1151 m 0
 850 1282 754 1365 626 1365 c 0
 499 1365 405 1281 405 1151 c 0
 405 983 497 911 626 875 c 1
 755 911 850 983 850 1151 c 0
EndSplineSet
EndChar

StartChar: ellipsis
Encoding: 272 8230 142
Width: 1367
VWidth: 0
Flags: HW
LayerCount: 2
Fore
SplineSet
77 -12 m 1
 77 216 l 1
 318 216 l 1
 318 -12 l 1
 77 -12 l 1
913 -12 m 1
 913 216 l 1
 1153 216 l 1
 1153 -12 l 1
 913 -12 l 1
494 -12 m 1
 494 216 l 1
 735 216 l 1
 735 -12 l 1
 494 -12 l 1
EndSplineSet
EndChar

StartChar: eng
Encoding: 223 331 143
Width: 1367
VWidth: 0
Flags: HW
LayerCount: 2
Fore
SplineSet
714 1131 m 0
 968 1131 1056 956 1056 699 c 2
 1054 56 l 2
 1054 -270 1038 -432 662 -432 c 2
 398 -432 l 1
 398 -291 l 1
 661 -291 l 2
 847 -291 872 -247 872 0 c 2
 873 676 l 2
 873 843 868 991 650 991 c 0
 512 991 378 899 378 743 c 2
 378 0 l 1
 196 0 l 1
 196 1098 l 1
 364 1098 l 1
 374 979 l 1
 437 1067 547 1131 714 1131 c 0
EndSplineSet
EndChar

StartChar: equal
Encoding: 29 61 145
Width: 1367
VWidth: 0
Flags: HW
LayerCount: 2
Fore
SplineSet
1096 899 m 1
 136 899 l 1
 136 1049 l 1
 1096 1049 l 1
 1096 899 l 1
1097 457 m 1
 136 457 l 1
 136 605 l 1
 1097 605 l 1
 1097 457 l 1
EndSplineSet
PickledData: "(dp1
S'com.typemytype.robofont.layerData'
p2
(dp3
s."
EndChar

StartChar: eth
Encoding: 175 240 146
Width: 1367
VWidth: 0
Flags: HW
LayerCount: 2
Fore
SplineSet
644 129 m 0
 862 129 950 314 950 460 c 0
 950 740 728 820 580 820 c 0
 395 820 305 666 305 504 c 0
 305 322 419 129 644 129 c 0
1140 558 m 0
 1140 225 1012 -24 652 -24 c 0
 289 -24 121 232 121 487 c 0
 121 736 283 983 580 983 c 0
 716 983 848 932 935 816 c 1
 918 937 834 1078 701 1204 c 1
 290 1059 l 1
 241 1180 l 1
 582 1300 l 1
 490 1367 383 1425 264 1468 c 1
 350 1621 l 1
 525 1544 666 1461 778 1369 c 1
 1151 1500 l 1
 1201 1379 l 1
 884 1268 l 1
 1065 1073 1140 842 1140 558 c 0
EndSplineSet
EndChar

StartChar: exclam
Encoding: 1 33 147
Width: 1367
VWidth: 0
Flags: HW
LayerCount: 2
Fore
SplineSet
584 489 m 1
 495 1494 l 1
 735 1494 l 1
 646 489 l 1
 584 489 l 1
735 0 m 1
 495 0 l 1
 495 276 l 1
 735 276 l 1
 735 0 l 1
EndSplineSet
EndChar

StartChar: exclamdown
Encoding: 96 161 148
Width: 1367
VWidth: 0
Flags: HW
LayerCount: 2
Fore
SplineSet
646 642 m 5
 735 -363 l 5
 495 -363 l 5
 584 642 l 5
 646 642 l 5
495 1131 m 5
 735 1131 l 5
 735 855 l 5
 495 855 l 5
 495 1131 l 5
EndSplineSet
EndChar

StartChar: f
Encoding: 70 102 149
Width: 1367
VWidth: 0
Flags: HW
LayerCount: 2
Fore
SplineSet
676 0 m 1
 494 0 l 1
 494 958 l 1
 206 958 l 1
 206 1098 l 1
 494 1098 l 1
 494 1434 520 1586 945 1586 c 2
 1051 1586 l 1
 1041 1446 l 1
 941 1446 l 2
 752 1446 676 1420 676 1231 c 2
 676 1098 l 1
 1051 1098 l 1
 1051 958 l 1
 676 958 l 1
 676 0 l 1
EndSplineSet
EndChar

StartChar: five
Encoding: 21 53 150
Width: 1367
VWidth: 0
Flags: HW
LayerCount: 2
Fore
SplineSet
263 256 m 1
 382 176 495 136 591 136 c 0
 758 136 870 257 870 495 c 1
 870 656 827 810 655 810 c 0
 534 810 435 720 435 720 c 1
 265 750 l 1
 265 1494 l 1
 988 1494 l 1
 988 1347 l 1
 453 1347 l 1
 453 901 l 1
 453 901 553 977 675 977 c 0
 966 977 1071 741 1071 496 c 0
 1071 181 855 -20 582 -20 c 0
 463 -20 334 18 208 101 c 1
 263 256 l 1
EndSplineSet
EndChar

StartChar: florin
Encoding: 252 402 151
Width: 1367
VWidth: 0
Flags: HW
LayerCount: 2
Fore
SplineSet
1239 1383 m 1
 1205 1396 1170 1406 1126 1406 c 0
 910 1406 921 1210 888 1026 c 1
 1109 1026 l 1
 1099 873 l 1
 863 873 l 1
 722 130 l 1
 676 -96 607 -360 356 -360 c 0
 304 -360 258 -356 216 -344 c 1
 228 -195 l 1
 257 -206 287 -210 317 -210 c 0
 448 -210 478 -72 508 37 c 0
 579 296 620 597 673 873 c 1
 501 873 l 1
 512 1026 l 1
 700 1026 l 1
 738 1307 770 1561 1091 1561 c 0
 1150 1561 1200 1553 1249 1541 c 1
 1239 1383 l 1
EndSplineSet
EndChar

StartChar: four
Encoding: 20 52 152
Width: 1367
VWidth: 0
Flags: HW
LayerCount: 2
Fore
SplineSet
898 0 m 1
 711 0 l 1
 711 398 l 1
 61 398 l 1
 61 542 l 1
 667 1494 l 1
 898 1494 l 1
 898 538 l 1
 1140 538 l 1
 1140 398 l 1
 898 398 l 1
 898 0 l 1
711 1284 m 1
 250 538 l 1
 711 538 l 1
 711 1284 l 1
EndSplineSet
EndChar

StartChar: fraction
Encoding: 275 8260 153
Width: 1367
VWidth: 0
Flags: HW
LayerCount: 2
Fore
SplineSet
874 1763 m 1
 1060 1763 l 1
 350 -48 l 1
 170 -48 l 1
 874 1763 l 1
EndSplineSet
EndChar

StartChar: g
Encoding: 71 103 154
Width: 1367
VWidth: 0
Flags: HW
HStem: -488 139<347 772> 0 162<482 796> 991 140<475 807>
VStem: 158 184<319 831> 947 168<-174 210 338 811 949 1098>
LayerCount: 2
Back
SplineSet
456.267578125 -492.305664062 m 4
 890.510742188 -492.305664062 1070.92675781 -240.924804688 1070.92675781 109.228515625 c 6
 1070.92675781 1110.08007812 l 5
 898.51953125 1110.08007812 l 5
 887.025390625 954.819335938 l 5
 820.4375 1068.25195312 703.233398438 1133.21582031 543.25 1133.21582031 c 4
 206.443359375 1133.21582031 35.59375 867.8203125 35.59375 551.92578125 c 4
 35.59375 276.963867188 199.102539062 0 530.346679688 0 c 4
 693.94140625 0 816.850585938 67.896484375 884.504882812 179.892578125 c 5
 884.504882812 63.8466796875 l 6
 884.504882812 -196.432617188 756.3671875 -343.702148438 447.369140625 -343.702148438 c 4
 433.131835938 -343.702148438 405.545898438 -343.759765625 211.337890625 -336.805664062 c 5
 211.337890625 -485.41015625 l 5
 431.573242188 -492.376953125 444.4765625 -492.305664062 456.267578125 -492.305664062 c 4
553.927734375 144.822265625 m 4
 310.333007812 144.822265625 225.575195312 365.725585938 225.575195312 561.046875 c 4
 225.575195312 770.381835938 315.89453125 987.7265625 559.934570312 987.7265625 c 4
 799.301757812 987.7265625 885.83984375 825.330078125 885.83984375 604.204101562 c 6
 885.83984375 519.668945312 l 6
 884.94921875 321.901367188 794.408203125 144.822265625 553.927734375 144.822265625 c 4
EndSplineSet
Fore
SplineSet
643 991 m 0
 407 991 341 789 341 551 c 0
 341 361 424 162 635 162 c 0
 870 162 932 360 932 556 c 0
 932 784 879 991 643 991 c 0
947 210 m 1
 905 103 773 0 617 0 c 0
 341 0 158 253 158 556 c 0
 158 881 309 1131 623 1131 c 0
 768 1131 863 1062 932 949 c 1
 939 1098 l 1
 1115 1098 l 1
 1115 61 l 2
 1115 -324 923 -488 575 -488 c 0
 502 -488 389 -482 345 -472 c 1
 345 -336 l 1
 387 -346 496 -349 562 -349 c 0
 740 -349 947 -271 947 29 c 2
 947 210 l 1
EndSplineSet
PickledData: "(dp1
S'com.typemytype.robofont.layerData'
p2
(dp3
s."
EndChar

StartChar: germandbls
Encoding: 158 223 156
Width: 1367
VWidth: 0
Flags: HW
LayerCount: 2
Fore
SplineSet
845 1146 m 0
 845 1277 776 1375 640 1375 c 0
 436 1375 415 1166 415 968 c 2
 415 0 l 1
 232 0 l 1
 232 974 l 2
 232 1288 322 1517 637 1517 c 0
 884 1517 1013 1368 1013 1153 c 0
 1013 982 913 841 736 785 c 1
 784 756 830 732 874 711 c 0
 1019 642 1098 480 1098 325 c 0
 1098 148 991 -19 751 -19 c 0
 686 -19 615 -4 535 29 c 1
 535 165 l 1
 617 125 684 106 737 106 c 0
 863 106 931 216 931 334 c 0
 931 440 877 553 765 604 c 0
 669 648 565 686 565 778 c 0
 565 866 665 890 721 930 c 0
 799 986 845 1038 845 1146 c 0
EndSplineSet
EndChar

StartChar: grave
Encoding: 64 96 157
Width: 1367
VWidth: 0
Flags: HW
LayerCount: 2
Fore
SplineSet
655 1706 m 1
 938 1269 l 1
 799 1269 l 1
 418 1706 l 1
 655 1706 l 1
EndSplineSet
EndChar

StartChar: greater
Encoding: 30 62 158
Width: 1367
VWidth: 0
Flags: HW
LayerCount: 2
Fore
SplineSet
158 1157 m 1
 158 1323 l 1
 1179 795 l 1
 1179 700 l 1
 152 214 l 1
 152 380 l 1
 934 754 l 1
 158 1157 l 1
EndSplineSet
EndChar

StartChar: guillemotleft
Encoding: 106 171 159
Width: 1367
VWidth: 0
Flags: HW
LayerCount: 2
Fore
SplineSet
680 993 m 1
 386 588 l 1
 668 185 l 1
 496 185 l 1
 197 588 l 1
 503 993 l 1
 680 993 l 1
1087 993 m 1
 795 588 l 1
 1078 185 l 1
 905 185 l 1
 607 588 l 1
 911 993 l 1
 1087 993 l 1
EndSplineSet
EndChar

StartChar: guillemotright
Encoding: 122 187 160
Width: 1367
VWidth: 0
Flags: HW
LayerCount: 2
Fore
SplineSet
197 185 m 1
 489 590 l 1
 204 993 l 1
 380 993 l 1
 679 590 l 1
 374 185 l 1
 197 185 l 1
636 185 m 1
 927 590 l 1
 645 993 l 1
 818 993 l 1
 1117 590 l 1
 810 185 l 1
 636 185 l 1
EndSplineSet
EndChar

StartChar: guilsinglleft
Encoding: 273 8249 161
Width: 1367
VWidth: 0
Flags: HW
LayerCount: 2
Fore
SplineSet
882 993 m 1
 590 588 l 1
 872 185 l 1
 699 185 l 1
 402 588 l 1
 705 993 l 1
 882 993 l 1
EndSplineSet
EndChar

StartChar: guilsinglright
Encoding: 274 8250 162
Width: 1367
VWidth: 0
Flags: HW
LayerCount: 2
Fore
SplineSet
402 185 m 1
 692 590 l 1
 409 993 l 1
 583 993 l 1
 882 590 l 1
 576 185 l 1
 402 185 l 1
EndSplineSet
EndChar

StartChar: h
Encoding: 72 104 163
Width: 1367
VWidth: 0
Flags: HW
HStem: 0 23G<249 432 910 1091> 991 140<559 832>
VStem: 249 182<0 887 965 1546> 910 181<0 904>
LayerCount: 2
Fore
SplineSet
1091 663 m 6
 1091 0 l 5
 910 0 l 5
 910 640 l 6
 910 828 881 991 697 991 c 4
 526 991 432 856 432 746 c 6
 432 0 l 5
 249 0 l 5
 249 1546 l 5
 432 1566 l 5
 432 965 l 5
 485 1034 569 1131 754 1131 c 4
 1004 1131 1091 939 1091 663 c 6
EndSplineSet
EndChar

StartChar: hungarumlaut
Encoding: 262 733 164
Width: 1367
VWidth: 0
Flags: HW
LayerCount: 2
Fore
SplineSet
539 1271 m 1
 794 1608 l 1
 984 1608 l 1
 671 1271 l 1
 539 1271 l 1
246 1271 m 1
 496 1608 l 1
 685 1608 l 1
 375 1271 l 1
 246 1271 l 1
EndSplineSet
EndChar

StartChar: hyphen
Encoding: 13 45 165
Width: 1367
VWidth: 0
Flags: HW
LayerCount: 2
Fore
SplineSet
983 706 m 1
 983 552 l 1
 247 552 l 1
 247 706 l 1
 983 706 l 1
EndSplineSet
PickledData: "(dp1
S'com.typemytype.robofont.layerData'
p2
(dp3
s."
EndChar

StartChar: i
Encoding: 73 105 166
Width: 1367
VWidth: 0
Flags: HW
HStem: 0 140<293 641 823 1138> 958 140<327 641> 1297 280<627 837>
VStem: 611 242<1319 1555> 641 182<140 958>
LayerCount: 2
Fore
SplineSet
327 958 m 1xe8
 327 1098 l 1
 823 1098 l 1
 823 140 l 1
 1138 140 l 1
 1138 0 l 1
 293 0 l 1
 293 140 l 1
 641 140 l 1
 641 958 l 1
 327 958 l 1xe8
611 1387 m 2xf0
 611 1486 l 2
 611 1536 682 1577 732 1577 c 0
 782 1577 853 1536 853 1486 c 2
 853 1387 l 2
 853 1337 782 1297 732 1297 c 0
 682 1297 611 1337 611 1387 c 2xf0
EndSplineSet
EndChar

StartChar: j
Encoding: 74 106 171
Width: 1367
VWidth: 0
Flags: HW
HStem: -360 140<198 625> 958 140<280 672> 1297 280<656 866>
VStem: 640 242<1319 1555> 672 182<-180 958>
LayerCount: 2
Fore
SplineSet
640 1387 m 2xf0
 640 1486 l 2
 640 1536 711 1577 761 1577 c 0
 811 1577 882 1536 882 1486 c 2
 882 1387 l 2
 882 1337 811 1297 761 1297 c 0
 711 1297 640 1337 640 1387 c 2xf0
460 -220 m 2
 646 -220 672 -176 672 71 c 2
 672 958 l 1
 280 958 l 1
 280 1098 l 1
 854 1098 l 1
 854 127 l 2xe8
 854 -199 838 -360 462 -360 c 2
 198 -360 l 1
 198 -220 l 1
 460 -220 l 2
EndSplineSet
PickledData: "(dp1
S'com.typemytype.robofont.layerData'
p2
(dp3
s."
EndChar

StartChar: k
Encoding: 75 107 172
Width: 1367
VWidth: 0
Flags: HW
HStem: 0 23G<296 478 1014 1249>
VStem: 296 182<0 457 621 1546>
LayerCount: 2
Fore
SplineSet
478 621 m 5
 951 1098 l 5
 1182 1098 l 5
 710 618 l 5
 1249 0 l 5
 1032 0 l 5
 576 544 l 5
 478 457 l 5
 478 0 l 5
 296 0 l 5
 296 1546 l 5
 478 1566 l 5
 478 621 l 5
EndSplineSet
PickledData: "(dp1
S'com.typemytype.robofont.layerData'
p2
(dp3
s."
EndChar

StartChar: kgreenlandic
Encoding: 211 312 173
Width: 1367
VWidth: 0
Flags: HW
LayerCount: 2
Fore
SplineSet
398 593 m 5
 915 1098 l 1
 1166 1098 l 1
 576 544 l 5
 1206 0 l 1
 963 0 l 1
 397 499 l 5
 397 0 l 1
 216 0 l 1
 216 1099 l 1
 398 1099 l 1
 398 593 l 5
EndSplineSet
EndChar

StartChar: l
Encoding: 76 108 174
Width: 1367
VWidth: 0
Flags: HW
HStem: 0 140<687 1032> 1426 140<129 457>
VStem: 457 182<188 1426>
LayerCount: 2
Fore
SplineSet
1032 0 m 1
 887 0 l 2
 513 0 461 107 457 434 c 1
 457 1426 l 1
 129 1426 l 1
 129 1566 l 1
 640 1566 l 1
 640 443 l 2
 640 196 659 140 880 140 c 2
 1032 140 l 1
 1032 0 l 1
EndSplineSet
PickledData: "(dp1
S'com.typemytype.robofont.layerData'
p2
(dp3
s."
EndChar

StartChar: less
Encoding: 28 60 177
Width: 1367
VWidth: 0
Flags: HW
LayerCount: 2
Fore
SplineSet
1176 367 m 1
 1176 190 l 1
 152 690 l 1
 152 808 l 1
 1179 1323 l 1
 1179 1143 l 1
 396 750 l 1
 1176 367 l 1
EndSplineSet
EndChar

StartChar: logicalnot
Encoding: 107 172 178
Width: 1367
VWidth: 0
Flags: HW
LayerCount: 2
Fore
SplineSet
930 716 m 1
 136 716 l 1
 136 866 l 1
 1096 866 l 1
 1096 258 l 1
 930 258 l 1
 930 716 l 1
EndSplineSet
EndChar

StartChar: lslash
Encoding: 217 322 179
Width: 1367
VWidth: 0
Flags: HW
LayerCount: 2
Fore
SplineSet
196 1435 m 1
 196 1586 l 1
 789 1586 l 1
 789 975 l 5
 1126 1139 l 5
 1126 990 l 5
 789 825 l 5
 789 145 l 1
 1260 145 l 1
 1260 0 l 1
 125 0 l 1
 125 145 l 1
 606 145 l 1
 606 736 l 5
 305 590 l 5
 305 739 l 5
 606 885 l 5
 606 1435 l 1
 196 1435 l 1
EndSplineSet
EndChar

StartChar: m
Encoding: 77 109 180
Width: 1367
VWidth: 0
Flags: HW
HStem: 0 23G<156 323 606 760 1030 1197> 991 140<394 565 809 993>
VStem: 156 167<0 923> 156 145<953 1098> 606 153<0 943> 1030 167<0 957>
LayerCount: 2
Fore
SplineSet
913 991 m 4xdc
 758 991 760 802 760 681 c 6
 760 0 l 5
 606 0 l 5
 606 670 l 6
 606 803 604 991 479 991 c 4
 367 991 323 838 323 722 c 6
 323 0 l 5
 156 0 l 5xec
 156 1098 l 5
 300 1098 l 5
 311 953 l 5
 343 1038 408 1131 518 1131 c 4
 623 1131 696 1066 724 961 c 5
 767 1071 836 1131 955 1131 c 4
 1163 1131 1197 915 1197 704 c 6
 1197 0 l 5
 1030 0 l 5
 1030 683 l 6
 1030 825 1029 991 913 991 c 4xdc
EndSplineSet
EndChar

StartChar: macron
Encoding: 110 175 181
Width: 1367
VWidth: 0
Flags: HW
LayerCount: 2
Fore
SplineSet
276 1380 m 1
 276 1516 l 1
 955 1516 l 1
 955 1380 l 1
 276 1380 l 1
EndSplineSet
EndChar

StartChar: minus
Encoding: 280 8722 182
Width: 1367
VWidth: 0
Flags: HW
LayerCount: 2
Fore
SplineSet
1078 538 m 1
 152 538 l 1
 152 687 l 1
 1078 687 l 1
 1078 538 l 1
EndSplineSet
EndChar

StartChar: multiply
Encoding: 150 215 183
Width: 1367
VWidth: 0
Flags: HW
LayerCount: 2
Fore
SplineSet
1078 280 m 1
 962 168 l 1
 634 489 l 1
 305 168 l 1
 190 278 l 1
 518 603 l 1
 190 925 l 1
 305 1037 l 1
 634 714 l 1
 962 1037 l 1
 1078 924 l 1
 747 603 l 1
 1078 280 l 1
EndSplineSet
EndChar

StartChar: n
Encoding: 78 110 184
Width: 1367
VWidth: 0
Flags: HW
HStem: 0 23G<244 426 921 1103> 991 140<541 852>
VStem: 244 182<0 890 979 1098> 921 182<0 922>
LayerCount: 2
Fore
SplineSet
762 1131 m 4
 1016 1131 1103 956 1103 699 c 6
 1103 0 l 5
 921 0 l 5
 921 225 921 451 921 676 c 4
 921 843 915 991 697 991 c 4
 559 991 426 899 426 743 c 6
 426 0 l 5
 244 0 l 5
 244 1098 l 5
 412 1098 l 5
 422 979 l 5
 485 1067 595 1131 762 1131 c 4
EndSplineSet
EndChar

StartChar: nine
Encoding: 25 57 187
Width: 1367
VWidth: 0
Flags: HW
LayerCount: 2
Fore
SplineSet
665 1518 m 0
 972 1518 1155 1335 1155 1030 c 0
 1155 839 1080 700 990 584 c 2
 539 0 l 1
 297 0 l 1
 832 670 l 1
 781 638 695 611 616 611 c 0
 353 611 194 790 194 1053 c 0
 194 1353 420 1518 665 1518 c 0
954 1066 m 0
 954 1241 843 1365 667 1365 c 0
 497 1365 384 1234 384 1057 c 0
 384 883 482 751 656 751 c 0
 854 751 954 888 954 1066 c 0
EndSplineSet
EndChar

StartChar: numbersign
Encoding: 3 35 189
Width: 1367
VWidth: 0
Flags: HW
LayerCount: 2
Fore
SplineSet
1131 998 m 1
 947 998 l 1
 861 574 l 1
 1049 574 l 1
 1033 437 l 1
 839 437 l 1
 747 -24 l 1
 585 -24 l 1
 673 437 l 1
 458 437 l 1
 368 -24 l 1
 205 -24 l 1
 299 437 l 1
 82 437 l 1
 96 574 l 1
 325 574 l 1
 405 997 l 1
 180 997 l 1
 194 1131 l 1
 430 1131 l 1
 516 1569 l 1
 680 1569 l 1
 594 1131 l 1
 812 1131 l 1
 897 1569 l 1
 1059 1569 l 1
 972 1131 l 1
 1148 1131 l 1
 1131 998 l 1
567 998 m 1
 484 574 l 1
 702 574 l 1
 786 998 l 1
 567 998 l 1
EndSplineSet
EndChar

StartChar: o
Encoding: 79 111 190
Width: 1367
VWidth: 0
Flags: HW
HStem: -24 140<527 838> 991 140<526 837>
VStem: 207 185<276 827> 978 182<279 826>
LayerCount: 2
Fore
SplineSet
681 1131 m 0
 1009 1131 1160 883 1160 558 c 4
 1160 210 978 -24 681 -24 c 0
 357 -24 207 233 207 552 c 0
 207 898 385 1131 681 1131 c 0
392 551 m 0
 392 336 453 116 681 116 c 0
 916 116 978 336 978 554 c 4
 978 771 916 991 681 991 c 0
 453 991 392 766 392 551 c 0
EndSplineSet
PickledData: "(dp1
S'com.typemytype.robofont.layerData'
p2
(dp3
s."
EndChar

StartChar: oe
Encoding: 228 339 194
Width: 1367
VWidth: 0
Flags: HW
LayerCount: 2
Fore
SplineSet
254 551 m 0
 254 344 296 116 425 116 c 0
 547 116 590 337 590 559 c 0
 590 769 543 991 425 991 c 0
 296 991 254 758 254 551 c 0
1149 98 m 1
 1081 22 999 -24 876 -24 c 0
 775 -24 702 31 655 143 c 1
 599 27 517 -24 419 -24 c 0
 192 -24 70 233 70 552 c 0
 70 898 215 1131 427 1131 c 0
 532 1131 610 1076 662 965 c 1
 715 1080 794 1131 891 1131 c 0
 1075 1131 1171 881 1171 582 c 1
 1170 521 l 1
 734 521 l 1
 742 303 788 116 889 116 c 0
 970 116 1025 158 1069 209 c 1
 1149 98 l 1
1027 654 m 1
 1023 822 987 991 891 991 c 0
 793 991 748 825 740 654 c 1
 1027 654 l 1
EndSplineSet
EndChar

StartChar: ogonek
Encoding: 260 731 195
Width: 1367
VWidth: 0
Flags: HW
LayerCount: 2
Fore
SplineSet
415 -245 m 0
 415 -105 556 -33 654 13 c 1
 796 13 l 1
 709 -37 570 -120 570 -212 c 0
 570 -280 632 -306 700 -306 c 0
 757 -306 807 -288 851 -271 c 1
 851 -393 l 1
 800 -414 744 -425 687 -425 c 0
 546 -425 415 -386 415 -245 c 0
EndSplineSet
EndChar

StartChar: one
Encoding: 17 49 199
Width: 1367
VWidth: 0
Flags: HW
HStem: 0 146<238 575 762 1077> 1107 21G<237 295> 1474 20G<519 762>
VStem: 575 187<146 1291>
LayerCount: 2
Fore
SplineSet
1077 0 m 1
 238 0 l 1
 238 146 l 1
 575 146 l 1
 575 1291 l 1
 472 1233 353 1151 237 1107 c 1
 237 1288 l 1
 368 1343 465 1417 574 1494 c 1
 762 1494 l 1
 762 146 l 1
 1077 146 l 1
 1077 0 l 1
EndSplineSet
EndChar

StartChar: onehalf
Encoding: 124 189 200
Width: 1367
VWidth: 0
Flags: HW
LayerCount: 2
Fore
SplineSet
281 1 m 5
 148 1 l 5
 938 1562 l 5
 1069 1562 l 5
 281 1 l 5
131 1383 m 1
 -37 1307 l 1
 -37 1448 l 1
 149 1535 l 1
 266 1551 l 1
 266 782 l 1
 402 782 l 1
 402 656 l 1
 -3 656 l 1
 -3 785 l 1
 131 785 l 1
 131 1383 l 1
1092 636 m 0
 1092 715 1027 752 984 752 c 0
 918 752 846 697 816 637 c 1
 723 723 l 1
 774 838 883 893 986 893 c 0
 1108 893 1222 813 1222 656 c 0
 1222 468 1109 336 887 126 c 1
 1219 126 l 1
 1219 -1 l 1
 713 -1 l 1
 713 119 l 1
 864 269 1092 510 1092 636 c 0
EndSplineSet
EndChar

StartChar: onequarter
Encoding: 123 188 201
Width: 1367
VWidth: 0
Flags: HW
LayerCount: 2
Fore
SplineSet
973 245 m 1
 665 245 l 1
 665 345 l 1
 959 907 l 1
 1109 907 l 1
 1109 361 l 1
 1231 361 l 1
 1231 245 l 1
 1107 245 l 1
 1107 1 l 1
 973 1 l 1
 973 245 l 1
349 1 m 5
 216 1 l 5
 1006 1562 l 5
 1137 1562 l 5
 349 1 l 5
972 361 m 1
 972 725 l 1
 799 361 l 1
 972 361 l 1
164 1383 m 1
 -4 1307 l 1
 -4 1448 l 1
 181 1535 l 1
 298 1551 l 1
 298 782 l 1
 434 782 l 1
 434 656 l 1
 29 656 l 1
 29 785 l 1
 164 785 l 1
 164 1383 l 1
EndSplineSet
EndChar

StartChar: ordfeminine
Encoding: 105 170 202
Width: 1367
VWidth: 0
Flags: HW
LayerCount: 2
Fore
SplineSet
327 1377 m 1
 383 1472 494 1515 642 1515 c 0
 826 1515 945 1435 945 1251 c 0
 945 1165 942 1082 942 997 c 0
 942 919 945 840 952 763 c 1
 806 763 l 1
 800 843 l 1
 748 778 665 744 556 744 c 0
 407 744 276 820 276 969 c 0
 276 1217 577 1197 798 1226 c 1
 798 1352 761 1397 634 1397 c 0
 528 1397 446 1363 402 1295 c 1
 327 1377 l 1
581 855 m 0
 719 855 799 952 799 1089 c 2
 799 1116 l 1
 671 1093 429 1119 429 972 c 0
 429 884 494 855 581 855 c 0
EndSplineSet
EndChar

StartChar: ordmasculine
Encoding: 121 186 203
Width: 1367
VWidth: 0
Flags: HW
LayerCount: 2
Fore
SplineSet
685 834 m 0
 440 834 281 977 281 1221 c 0
 281 1457 445 1604 683 1604 c 0
 928 1604 1081 1460 1081 1218 c 0
 1081 982 922 834 685 834 c 0
685 951 m 0
 838 951 928 1064 928 1216 c 0
 928 1378 847 1487 682 1487 c 0
 523 1487 437 1376 437 1219 c 0
 437 1060 524 951 685 951 c 0
EndSplineSet
EndChar

StartChar: oslash
Encoding: 183 248 204
Width: 1367
VWidth: 0
Flags: HW
LayerCount: 2
Fore
SplineSet
323 -284 m 1
 225 -240 l 1
 350 50 l 1
 205 149 138 336 138 552 c 0
 138 898 317 1131 613 1131 c 0
 686 1131 750 1120 806 1097 c 1
 937 1393 l 1
 1033 1353 l 1
 899 1044 l 1
 1030 944 1092 767 1092 558 c 0
 1092 210 911 -24 613 -24 c 0
 551 -24 495 -15 446 2 c 1
 323 -284 l 1
747 960 m 1
 710 980 666 991 613 991 c 0
 385 991 323 766 323 551 c 0
 323 420 345 286 416 201 c 1
 747 960 l 1
830 885 m 1
 505 136 l 1
 536 123 572 116 613 116 c 0
 849 116 910 336 910 554 c 0
 910 677 890 800 830 885 c 1
EndSplineSet
EndChar

StartChar: p
Encoding: 80 112 206
Width: 1367
VWidth: 0
Flags: HW
HStem: -24 140<540 853> 991 140<526 855>
VStem: 211 180<279 842 997 1098> 978 182<264 850>
LayerCount: 2
Fore
SplineSet
723 -24 m 4
 548 -24 445 84 394 176 c 5
 394 -422 l 5
 211 -442 l 5
 211 1098 l 5
 377 1098 l 5
 394 947 l 5
 452 1047 556 1131 712 1131 c 4
 1021 1131 1160 879 1160 568 c 4
 1160 251 1029 -24 723 -24 c 4
392 556 m 4
 392 320 459 116 700 116 c 4
 929 116 978 341 978 556 c 4
 978 781 931 991 697 991 c 4
 455 991 392 798 392 556 c 4
EndSplineSet
PickledData: "(dp1
S'com.typemytype.robofont.layerData'
p2
(dp3
s."
EndChar

StartChar: paragraph
Encoding: 117 182 207
Width: 1367
VWidth: 0
Flags: HW
LayerCount: 2
Fore
SplineSet
66 1228 m 0
 66 1515 350 1577 637 1577 c 2
 1066 1577 l 1
 1066 1443 l 1
 970 1443 l 1
 970 -160 l 1
 825 -160 l 1
 825 1443 l 1
 596 1443 l 1
 596 -160 l 1
 438 -160 l 1
 438 854 l 1
 222 857 66 1011 66 1228 c 0
EndSplineSet
EndChar

StartChar: parenleft
Encoding: 8 40 208
Width: 1367
VWidth: 0
Flags: HW
LayerCount: 2
Fore
SplineSet
384 773 m 0
 384 1158 509 1462 685 1706 c 1
 862 1706 l 1
 672 1406 577 1098 577 782 c 0
 577 400 699 111 864 -152 c 1
 689 -152 l 1
 509 88 384 388 384 773 c 0
EndSplineSet
EndChar

StartChar: parenright
Encoding: 9 41 209
Width: 1367
VWidth: 0
Flags: HW
LayerCount: 2
Fore
SplineSet
816 773 m 0
 816 388 691 88 511 -152 c 1
 335 -152 l 1
 500 111 621 400 621 782 c 0
 621 1098 526 1406 336 1706 c 1
 514 1706 l 1
 690 1462 816 1158 816 773 c 0
EndSplineSet
EndChar

StartChar: percent
Encoding: 5 37 210
Width: 1367
VWidth: 0
Flags: HW
LayerCount: 2
Fore
SplineSet
905 548 m 0
 790 548 767 436 767 319 c 0
 767 201 788 96 904 96 c 0
 1015 96 1040 209 1040 324 c 0
 1040 441 1017 548 905 548 c 0
908 663 m 0
 1097 663 1165 518 1165 324 c 0
 1165 115 1069 -19 900 -19 c 0
 711 -19 641 129 641 319 c 0
 641 514 717 663 908 663 c 0
334 1573 m 0
 523 1573 590 1428 590 1234 c 0
 590 1025 494 891 325 891 c 0
 136 891 66 1039 66 1229 c 0
 66 1424 143 1573 334 1573 c 0
1126 1019 m 1
 201 465 l 1
 140 567 l 1
 1066 1126 l 1
 1126 1019 l 1
330 1458 m 0
 215 1458 194 1346 194 1229 c 0
 194 1111 213 1006 329 1006 c 0
 440 1006 465 1119 465 1234 c 0
 465 1351 442 1458 330 1458 c 0
EndSplineSet
EndChar

StartChar: period
Encoding: 14 46 211
Width: 1367
VWidth: 0
Flags: HW
LayerCount: 2
Fore
SplineSet
765 0 m 1
 465 0 l 1
 465 301 l 1
 765 301 l 1
 765 0 l 1
EndSplineSet
EndChar

StartChar: periodcentered
Encoding: 118 183 212
Width: 1367
VWidth: 0
Flags: HW
LayerCount: 2
Fore
SplineSet
487 557 m 1
 487 785 l 1
 729 785 l 1
 729 557 l 1
 487 557 l 1
EndSplineSet
EndChar

StartChar: plus
Encoding: 11 43 213
Width: 1367
VWidth: 0
Flags: HW
LayerCount: 2
Fore
SplineSet
536 1287 m 1
 697 1287 l 1
 697 828 l 1
 1196 828 l 1
 1196 676 l 1
 696 676 l 1
 696 217 l 1
 532 217 l 1
 532 676 l 1
 36 676 l 1
 36 828 l 1
 536 828 l 1
 536 1287 l 1
EndSplineSet
EndChar

StartChar: plusminus
Encoding: 112 177 214
Width: 1367
VWidth: 0
Flags: HW
LayerCount: 2
Fore
SplineSet
526 1202 m 1
 693 1202 l 1
 693 796 l 1
 1095 796 l 5
 1095 645 l 5
 696 645 l 1
 696 242 l 1
 531 242 l 1
 531 645 l 1
 135 645 l 1
 135 796 l 1
 526 796 l 1
 526 1202 l 1
135 150 m 1
 1097 150 l 5
 1097 0 l 5
 135 0 l 1
 135 150 l 1
EndSplineSet
EndChar

StartChar: q
Encoding: 81 113 215
Width: 1367
VWidth: 0
Flags: HW
LayerCount: 2
Fore
SplineSet
1009 921 m 5
 1009 1098 l 5
 1191 1098 l 5
 1191 -422 l 5
 1011 -442 l 5
 1011 180 l 5
 955 71 835 -24 666 -24 c 4
 347 -24 207 248 207 568 c 4
 207 879 357 1131 666 1131 c 4
 842 1131 940 1041 1009 921 c 5
1009 556 m 4
 1009 798 936 991 687 991 c 4
 449 991 390 781 390 556 c 4
 390 341 457 116 687 116 c 4
 928 116 1009 320 1009 556 c 4
EndSplineSet
PickledData: "(dp1
S'com.typemytype.robofont.layerData'
p2
(dp3
s."
EndChar

StartChar: question
Encoding: 31 63 216
Width: 1367
VWidth: 0
Flags: HW
LayerCount: 2
Fore
SplineSet
960 1232 m 0
 960 926 524 806 524 556 c 0
 524 500 528 447 537 400 c 1
 360 400 l 1
 353 456 349 513 349 570 c 1
 348 571 l 1
 348 905 774 931 774 1237 c 0
 774 1407 616 1453 447 1453 c 0
 337 1453 244 1419 168 1378 c 1
 168 1537 l 1
 246 1574 338 1607 447 1607 c 0
 725 1607 960 1510 960 1232 c 0
328 -12 m 1
 328 216 l 1
 571 216 l 1
 571 -12 l 1
 328 -12 l 1
EndSplineSet
EndChar

StartChar: questiondown
Encoding: 126 191 217
Width: 1367
VWidth: 0
Flags: HW
LayerCount: 2
Fore
SplineSet
168 87 m 4
 168 393 605 513 605 763 c 4
 605 819 600 872 591 919 c 5
 767 919 l 5
 774 863 779 807 779 750 c 5
 780 749 l 5
 780 415 355 389 355 83 c 4
 355 -87 512 -133 681 -133 c 4
 791 -133 884 -100 960 -59 c 5
 960 -217 l 5
 882 -254 790 -288 681 -288 c 4
 403 -288 168 -191 168 87 c 4
800 1331 m 5
 800 1103 l 5
 557 1103 l 5
 557 1331 l 5
 800 1331 l 5
EndSplineSet
EndChar

StartChar: quotedbl
Encoding: 2 34 218
Width: 1367
VWidth: 0
Flags: HW
LayerCount: 2
Fore
SplineSet
516 1586 m 1
 465 871 l 1
 344 871 l 1
 294 1586 l 1
 516 1586 l 1
937 1586 m 1
 885 871 l 1
 765 871 l 1
 719 1586 l 1
 937 1586 l 1
EndSplineSet
PickledData: "(dp1
S'com.typemytype.robofont.layerData'
p2
(dp3
s."
EndChar

StartChar: quotedblbase
Encoding: 268 8222 219
Width: 1367
VWidth: 0
Flags: HW
LayerCount: 2
Fore
SplineSet
562 218 m 1
 392 -258 l 1
 245 -258 l 1
 360 218 l 1
 562 218 l 1
959 218 m 1
 788 -258 l 1
 642 -258 l 1
 756 218 l 1
 959 218 l 1
EndSplineSet
EndChar

StartChar: quotedblleft
Encoding: 266 8220 220
Width: 1367
VWidth: 0
Flags: HW
LayerCount: 2
Fore
SplineSet
621 1111 m 1
 791 1589 l 1
 939 1589 l 1
 823 1111 l 1
 621 1111 l 1
234 1111 m 1
 405 1589 l 1
 552 1589 l 1
 436 1111 l 1
 234 1111 l 1
EndSplineSet
EndChar

StartChar: quotedblright
Encoding: 267 8221 221
Width: 1367
VWidth: 0
Flags: HW
LayerCount: 2
Fore
SplineSet
551 1589 m 1
 380 1111 l 1
 234 1111 l 1
 349 1589 l 1
 551 1589 l 1
914 1589 m 1
 743 1111 l 1
 596 1111 l 1
 713 1589 l 1
 914 1589 l 1
EndSplineSet
EndChar

StartChar: quoteleft
Encoding: 263 8216 222
Width: 1367
VWidth: 0
Flags: HW
LayerCount: 2
Fore
SplineSet
446 1111 m 1
 617 1589 l 1
 763 1589 l 1
 647 1111 l 1
 446 1111 l 1
EndSplineSet
EndChar

StartChar: quoteright
Encoding: 264 8217 223
Width: 1367
VWidth: 0
Flags: HW
LayerCount: 2
Fore
SplineSet
762 1589 m 1
 593 1111 l 1
 446 1111 l 1
 564 1589 l 1
 762 1589 l 1
EndSplineSet
EndChar

StartChar: quotesinglbase
Encoding: 265 8218 224
Width: 1367
VWidth: 0
Flags: HW
LayerCount: 2
Fore
SplineSet
774 218 m 1
 605 -258 l 1
 457 -258 l 1
 575 218 l 1
 774 218 l 1
EndSplineSet
EndChar

StartChar: quotesingle
Encoding: 7 39 225
AltUni2: 0002bc.ffffffff.0
Width: 1367
VWidth: 0
Flags: HW
LayerCount: 2
Fore
SplineSet
547 970 m 1
 485 1582 l 1
 745 1582 l 1
 690 970 l 1
 547 970 l 1
EndSplineSet
EndChar

StartChar: r
Encoding: 82 114 226
Width: 1367
VWidth: 0
Flags: HW
HStem: 0 23G<361 544> 962 169<728 1030>
VStem: 361 182<0 808> 361 149<895 1098>
LayerCount: 2
Fore
SplineSet
544 0 m 1xe0
 361 0 l 1xe0
 361 1098 l 1
 511 1098 l 1xd0
 525 895 l 1
 616 1052 768 1131 949 1131 c 2
 1030 1131 l 1
 1030 962 l 1
 923 962 l 2
 698 962 544 855 544 611 c 2
 544 0 l 1xe0
EndSplineSet
PickledData: "(dp1
S'com.typemytype.robofont.layerData'
p2
(dp3
s."
EndChar

StartChar: registered
Encoding: 109 174 229
Width: 1367
VWidth: 0
Flags: HW
LayerCount: 2
Fore
SplineSet
614 1363 m 0
 964 1363 1240 1132 1240 786 c 1
 1241 786 l 1
 1241 438 966 210 618 210 c 0
 265 210 -11 438 -11 786 c 0
 -11 1133 267 1363 614 1363 c 0
87 789 m 0
 87 458 372 299 635 299 c 0
 945 299 1141 532 1141 770 c 0
 1141 1094 883 1275 631 1275 c 0
 300 1275 87 1063 87 789 c 0
803 444 m 1
 744 543 686 674 594 741 c 1
 488 741 l 1
 488 444 l 1
 373 444 l 1
 373 1142 l 1
 584 1142 l 1
 583 1142 l 1
 748 1142 918 1111 918 947 c 0
 918 827 821 766 712 754 c 1
 802 668 866 551 933 444 c 1
 803 444 l 1
486 830 m 1
 602 830 l 2
 703 830 798 832 798 935 c 0
 798 1022 738 1050 653 1050 c 2
 486 1050 l 1
 486 830 l 1
EndSplineSet
EndChar

StartChar: ring
Encoding: 259 730 230
Width: 1367
VWidth: 0
Flags: HW
LayerCount: 2
Fore
SplineSet
633 1569 m 0
 557 1569 497 1532 497 1456 c 0
 497 1395 542 1341 604 1341 c 0
 680 1341 744 1380 744 1457 c 0
 744 1517 694 1569 633 1569 c 0
853 1457 m 0
 853 1335 745 1248 623 1248 c 0
 496 1248 387 1331 387 1457 c 0
 387 1583 495 1663 622 1663 c 0
 747 1663 853 1582 853 1457 c 0
EndSplineSet
EndChar

StartChar: s
Encoding: 83 115 231
Width: 1367
VWidth: 0
Flags: HW
HStem: -24 141<410 823> 999 132<505 902>
VStem: 280 166<714 943> 894 162<183 418>
LayerCount: 2
Fore
SplineSet
1057 296 m 0
 1057 89 882 -24 671 -24 c 0
 506 -24 344 25 277 75 c 1
 353 196 l 1
 394 170 495 117 647 117 c 0
 792 117 894 184 894 301 c 0
 894 371 869 436 733 469 c 2
 547 516 l 1
 325 571 280 680 280 816 c 0
 280 976 408 1131 655 1131 c 0
 793 1131 912 1101 994 1057 c 1
 933 938 l 1
 874 962 779 999 660 999 c 0
 541 998 446 938 446 825 c 0
 446 757 469 702 591 671 c 2
 782 623 l 2
 962 579 1057 481 1057 296 c 0
EndSplineSet
PickledData: "(dp1
S'com.typemytype.robofont.layerData'
p2
(dp3
s."
EndChar

StartChar: section
Encoding: 102 167 235
Width: 1367
VWidth: 0
Flags: HW
LayerCount: 2
Fore
SplineSet
961 1417 m 1
 890 1448 808 1475 712 1475 c 0
 595 1475 474 1449 474 1331 c 0
 474 1181 652 1134 761 1090 c 0
 887 1037 1048 977 1048 801 c 0
 1048 660 934 579 843 523 c 1
 933 477 1022 402 1022 275 c 0
 1022 49 798 -52 573 -52 c 0
 457 -52 360 -32 274 4 c 1
 273 166 l 1
 355 128 453 97 566 97 c 0
 692 97 830 139 830 265 c 0
 830 401 635 441 536 482 c 0
 401 538 245 607 245 794 c 0
 245 936 356 1011 452 1061 c 1
 363 1113 284 1187 284 1317 c 0
 284 1543 480 1623 706 1623 c 0
 798 1623 884 1599 960 1577 c 1
 961 1417 l 1
693 595 m 1
 756 632 850 689 850 786 c 0
 850 909 668 950 586 992 c 1
 521 958 439 902 439 806 c 0
 439 681 604 632 693 595 c 1
EndSplineSet
EndChar

StartChar: semicolon
Encoding: 27 59 236
Width: 1367
VWidth: 0
Flags: HW
LayerCount: 2
Fore
SplineSet
410 -314 m 1
 486 286 l 1
 759 286 l 1
 591 -314 l 1
 410 -314 l 1
779 839 m 1
 479 839 l 1
 479 1140 l 1
 779 1140 l 1
 779 839 l 1
EndSplineSet
EndChar

StartChar: seven
Encoding: 23 55 237
Width: 1367
VWidth: 0
Flags: HW
LayerCount: 2
Fore
SplineSet
143 1325 m 1
 143 1494 l 1
 1029 1494 l 1
 1029 1348 l 1
 605 0 l 1
 373 0 l 1
 791 1325 l 1
 143 1325 l 1
EndSplineSet
EndChar

StartChar: six
Encoding: 22 54 238
Width: 1367
VWidth: 0
Flags: HW
LayerCount: 2
Fore
SplineSet
641 -26 m 0
 334 -26 155 168 155 473 c 0
 155 664 225 824 318 939 c 2
 773 1494 l 1
 1016 1494 l 1
 475 853 l 1
 526 885 612 912 691 912 c 0
 954 912 1116 712 1116 449 c 0
 1116 149 886 -26 641 -26 c 0
638 129 m 0
 809 129 923 268 923 445 c 0
 923 619 825 765 651 765 c 0
 453 765 353 615 353 437 c 0
 353 263 462 129 638 129 c 0
EndSplineSet
EndChar

StartChar: slash
Encoding: 15 47 239
Width: 1367
VWidth: 0
Flags: HW
LayerCount: 2
Fore
SplineSet
869 1586 m 1
 1066 1586 l 1
 356 -225 l 1
 165 -225 l 1
 869 1586 l 1
EndSplineSet
EndChar

StartChar: sterling
Encoding: 98 163 241
Width: 1367
VWidth: 0
Flags: HW
LayerCount: 2
Back
SplineSet
805.30859375 -27.8076171875 m 4
 428.237304688 -27.8076171875 259.166992188 374.846679688 259.166992188 830.891601562 c 4
 259.166992188 1250.23046875 391.53125 1686.25390625 805.30859375 1686.25390625 c 4
 1219.0859375 1686.25390625 1351.45019531 1250.23046875 1351.45019531 830.891601562 c 4
 1351.45019531 374.846679688 1182.37988281 -27.8076171875 805.30859375 -27.8076171875 c 4
805.30859375 1516.07128906 m 4
 586.184570312 1516.07128906 477.178710938 1213.52441406 477.178710938 829.779296875 c 4
 477.178710938 446.034179688 587.296875 144.599609375 805.30859375 144.599609375 c 4
 1023.3203125 144.599609375 1133.43847656 446.034179688 1133.43847656 829.779296875 c 4
 1133.43847656 1213.52441406 1024.43261719 1516.07128906 805.30859375 1516.07128906 c 4
EndSplineSet
Fore
SplineSet
1038 0 m 1
 220 0 l 1
 219 150 l 1
 375 237 382 458 382 696 c 0
 382 716 382 732 382 752 c 1
 214 752 l 1
 214 883 l 1
 380 883 l 1
 376 932 373 979 373 1023 c 0
 373 1328 497 1517 753 1517 c 0
 840 1517 933 1491 1029 1432 c 1
 981 1311 l 1
 900 1351 831 1370 774 1370 c 0
 617 1370 556 1249 556 1054 c 0
 556 1002 560 945 568 883 c 1
 935 883 l 1
 935 752 l 1
 572 752 l 1
 572 739 572 730 572 716 c 0
 572 512 569 229 462 146 c 1
 1038 146 l 1
 1038 0 l 1
EndSplineSet
EndChar

StartChar: t
Encoding: 84 116 242
Width: 1367
VWidth: 0
Flags: HW
HStem: -3 141<645 1031> 958 140<117 407 590 1031>
VStem: 407 182<196 958 1098 1477>
LayerCount: 2
Fore
SplineSet
590 958 m 1
 590 443 l 2
 590 224 618 142 780 138 c 1
 1031 138 l 1
 1031 -3 l 1
 755 -3 l 2
 462 -3 407 155 407 488 c 2
 407 958 l 1
 97 958 l 1
 117 1098 l 1
 407 1098 l 1
 407 1477 l 1
 590 1531 l 1
 590 1098 l 1
 1031 1098 l 1
 1031 958 l 1
 590 958 l 1
EndSplineSet
PickledData: "(dp1
S'com.typemytype.robofont.layerData'
p2
(dp3
s."
EndChar

StartChar: thorn
Encoding: 189 254 244
Width: 1367
VWidth: 0
Flags: HW
LayerCount: 2
Fore
SplineSet
697 -21 m 4
 497 -21 410 79 359 166 c 5
 359 -465 l 5
 176 -465 l 5
 176 1582 l 5
 360 1582 l 5
 360 938 l 5
 448 1070 580 1131 699 1131 c 4
 943 1131 1146 959 1146 573 c 5
 1145 573 l 5
 1145 150 942 -21 697 -21 c 4
682 1009 m 4
 496 1009 358 834 358 536 c 4
 358 263 515 101 666 101 c 4
 844 101 947 278 947 565 c 4
 947 843 848 1009 682 1009 c 4
EndSplineSet
EndChar

StartChar: three
Encoding: 19 51 245
Width: 1367
VWidth: 0
Flags: HW
LayerCount: 2
Fore
SplineSet
577 157 m 0
 768 157 897 251 897 433 c 0
 897 641 696 704 484 705 c 1
 374 705 l 1
 374 884 l 1
 484 885 l 2
 682 888 845 932 845 1129 c 0
 845 1270 749 1350 574 1350 c 0
 427 1350 312 1293 232 1222 c 1
 164 1384 l 1
 269 1472 410 1517 597 1517 c 0
 867 1517 1066 1377 1066 1145 c 0
 1066 940 908 844 740 804 c 1
 928 771 1121 653 1121 414 c 0
 1121 111 872 -12 567 -12 c 0
 399 -12 256 43 161 113 c 1
 231 274 l 1
 293 219 432 157 577 157 c 0
EndSplineSet
EndChar

StartChar: threequarters
Encoding: 125 190 246
Width: 1367
VWidth: 0
Flags: HW
LayerCount: 2
Fore
SplineSet
973 245 m 5
 665 245 l 5
 665 345 l 5
 959 907 l 5
 1109 907 l 5
 1109 361 l 5
 1231 361 l 5
 1231 245 l 5
 1107 245 l 5
 1107 1 l 5
 973 1 l 5
 973 245 l 5
349 1 m 5
 216 1 l 5
 1006 1562 l 5
 1137 1562 l 5
 349 1 l 5
972 361 m 5
 972 725 l 5
 799 361 l 5
 972 361 l 5
53 846 m 1
 99 805 189 765 266 765 c 0
 338 765 399 801 399 908 c 0
 399 1033 278 1053 152 1053 c 0
 135 1053 117 1052 100 1052 c 1
 100 1182 l 1
 229 1182 373 1184 373 1314 c 0
 373 1411 321 1444 256 1444 c 0
 183 1444 93 1398 52 1351 c 1
 -1 1456 l 1
 68 1521 171 1559 268 1559 c 0
 400 1559 519 1486 519 1307 c 0
 519 1224 463 1162 360 1121 c 1
 465 1092 544 1016 544 905 c 0
 544 723 409 642 263 642 c 0
 167 642 67 677 -1 742 c 1
 53 846 l 1
EndSplineSet
EndChar

StartChar: tilde
Encoding: 261 732 247
Width: 1367
VWidth: 0
Flags: HW
LayerCount: 2
Fore
SplineSet
1038 1537 m 1
 1031 1398 962 1290 815 1290 c 0
 673 1290 623 1406 484 1406 c 0
 421 1406 394 1364 392 1305 c 1
 255 1305 l 1
 258 1453 336 1549 488 1549 c 0
 633 1549 678 1433 819 1433 c 0
 877 1433 896 1482 900 1537 c 1
 1038 1537 l 1
EndSplineSet
EndChar

StartChar: trademark
Encoding: 277 8482 248
Width: 1367
VWidth: 0
Flags: HW
LayerCount: 2
Fore
SplineSet
843 1152 m 1
 965 1577 l 1
 1119 1577 l 1
 1119 745 l 1
 993 745 l 1
 993 1343 l 1
 892 1017 l 1
 803 1017 l 1
 694 1341 l 1
 694 745 l 1
 568 745 l 1
 568 1577 l 1
 715 1577 l 1
 843 1152 l 1
496 1467 m 1
 356 1467 l 1
 356 745 l 1
 221 745 l 1
 221 1467 l 1
 89 1467 l 1
 89 1577 l 1
 496 1577 l 1
 496 1467 l 1
EndSplineSet
EndChar

StartChar: two
Encoding: 18 50 249
Width: 1367
VWidth: 0
Flags: HW
HStem: 0 146<420 997> 1343 176<353 705>
VStem: 796 198<913 1252>
LayerCount: 2
Fore
SplineSet
194 1397 m 1
 291 1476 391 1517 555 1517 c 0
 840 1517 994 1343 994 1089 c 0
 994 858 842 685 739 553 c 2
 420 146 l 1
 997 146 l 1
 997 0 l 1
 204 0 l 1
 204 151 l 1
 630 724 l 2
 703 823 796 942 796 1084 c 0
 796 1249 712 1343 556 1343 c 0
 414 1343 339 1298 259 1240 c 1
 194 1397 l 1
EndSplineSet
PickledData: "(dp1
S'com.typemytype.robofont.layerData'
p2
(dp3
s."
EndChar

StartChar: u
Encoding: 85 117 250
Width: 1367
VWidth: 0
Flags: HW
HStem: -24 140<514 859>
VStem: 247 182<210 489> 938 182<201 489>
LayerCount: 2
Back
SplineSet
771.939453125 -24.470703125 m 4xb0
 1025.54492188 -24.470703125 1113.41699219 143.487304688 1113.41699219 400.4296875 c 6
 1113.41699219 1098.95703125 l 5
 930.999023438 1098.95703125 l 5
 930.999023438 422.67578125 l 4
 930.999023438 255.830078125 925.4375 115.6796875 707.42578125 115.6796875 c 1028xb0
EndSplineSet
Fore
SplineSet
1120 489 m 6
 1120 1099 l 1
 938 1099 l 1
 938 484 l 6
 938 284 932 116 691 116 c 3
 436 116 429 284 429 484 c 6
 429 1099 l 1
 247 1099 l 1
 247 489 l 6
 247 128 365 -24 691 -24 c 3
 1006 -24 1120 130 1120 489 c 6
EndSplineSet
PickledData: "(dp1
S'com.typemytype.robofont.layerData'
p2
(dp3
s."
EndChar

StartChar: underscore
Encoding: 63 95 256
Width: 1367
VWidth: 0
Flags: HW
LayerCount: 2
Fore
SplineSet
4 -296 m 1
 4 -157 l 1
 1077 -157 l 1
 1077 -296 l 1
 4 -296 l 1
EndSplineSet
EndChar

StartChar: uni00B2
Encoding: 113 178 260
Width: 1367
VWidth: 0
Flags: HW
LayerCount: 2
Fore
SplineSet
605 1517 m 4
 777 1517 917 1442 917 1270 c 4
 917 1144 840 1045 773 972 c 4
 697 889 597 806 515 736 c 5
 917 736 l 5
 917 608 l 5
 313 608 l 5
 313 729 l 5
 460 864 644 1009 747 1186 c 4
 765 1217 775 1244 775 1268 c 5
 776 1268 l 5
 776 1353 707 1389 622 1389 c 4
 515 1389 451 1323 415 1247 c 5
 319 1331 l 5
 363 1430 465 1517 605 1517 c 4
EndSplineSet
EndChar

StartChar: uni00B3
Encoding: 114 179 261
Width: 1367
VWidth: 0
Flags: HW
LayerCount: 2
Fore
SplineSet
379 800 m 1
 427 756 495 714 581 714 c 1
 581 713 l 1
 684 713 774 758 774 861 c 0
 774 980 655 1007 536 1007 c 1
 474 1004 l 1
 474 1135 l 1
 603 1135 746 1136 746 1266 c 0
 746 1357 682 1388 591 1388 c 0
 502 1388 430 1345 377 1304 c 1
 314 1408 l 1
 381 1470 473 1518 594 1518 c 0
 761 1518 894 1426 894 1260 c 0
 894 1164 842 1109 775 1073 c 1
 858 1037 917 970 917 859 c 0
 917 684 762 590 586 590 c 0
 468 590 379 632 314 694 c 1
 379 800 l 1
EndSplineSet
EndChar

StartChar: uni00B5
Encoding: 116 181 262
Width: 1367
VWidth: 0
Flags: HW
LayerCount: 2
Fore
SplineSet
378 49 m 1
 378 -296 l 1
 196 -296 l 1
 196 1098 l 1
 378 1098 l 1
 378 422 l 2
 378 255 384 107 602 107 c 0
 740 107 873 200 873 356 c 2
 873 1098 l 1
 1056 1098 l 1
 1056 0 l 1
 888 0 l 1
 878 119 l 1
 815 37 704 -22 537 -22 c 0
 474 -22 422 3 378 49 c 1
EndSplineSet
EndChar

StartChar: uni00B9
Encoding: 120 185 263
Width: 1367
VWidth: 0
Flags: HW
LayerCount: 2
Fore
SplineSet
565 1383 m 1
 509 1355 455 1330 396 1307 c 1
 397 1448 l 1
 466 1471 525 1499 583 1535 c 1
 699 1551 l 1
 699 782 l 1
 834 782 l 1
 834 656 l 1
 430 656 l 1
 430 785 l 1
 565 785 l 1
 565 1383 l 1
EndSplineSet
EndChar

StartChar: v
Encoding: 86 118 265
Width: 1367
VWidth: 0
Flags: HW
HStem: 0 23G<573 793>
LayerCount: 2
Fore
SplineSet
687 165 m 1
 800 472 894 788 1002 1098 c 1
 1204 1098 l 1
 785 0 l 1
 581 0 l 1
 163 1098 l 1
 367 1098 l 1
 687 165 l 1
EndSplineSet
PickledData: "(dp1
S'com.typemytype.robofont.layerData'
p2
(dp3
s."
EndChar

StartChar: w
Encoding: 87 119 266
Width: 1367
VWidth: 0
Flags: HW
LayerCount: 2
Fore
SplineSet
502 0 m 1
 315 0 l 1
 101 1098 l 1
 285 1098 l 1
 415 195 l 1
 591 1098 l 1
 808 1098 l 1
 979 197 l 1
 1095 1098 l 1
 1266 1098 l 1
 1066 0 l 1
 893 0 l 1
 697 954 l 1
 502 0 l 1
EndSplineSet
PickledData: "(dp1
S'com.typemytype.robofont.layerData'
p2
(dp3
s."
EndChar

StartChar: x
Encoding: 88 120 267
Width: 1367
VWidth: 0
Flags: HW
HStem: 0 21G<269 476 1023 1224> 1078 20G<287 502 998 1201>
LayerCount: 2
Back
SplineSet
1047.234375 1220.19824219 m 5
 1257.4609375 1220.19824219 l 5
 437.69140625 0 l 5
 221.904296875 0 l 5
 1047.234375 1220.19824219 l 5
EndSplineSet
Fore
SplineSet
948 1098 m 1
 1138 1098 l 1
 400 0 l 1
 206 0 l 1
 948 1098 l 1
224 1098 m 1
 427 1098 l 1
 700 656 l 1
 779 597 l 1
 1161 0 l 1
 973 0 l 1
 675 465 l 5
 588 541 l 1
 224 1098 l 1
EndSplineSet
PickledData: "(dp1
S'com.typemytype.robofont.layerData'
p2
(dp3
s."
EndChar

StartChar: y
Encoding: 89 121 268
Width: 1367
VWidth: 0
Flags: HW
LayerCount: 2
Fore
SplineSet
465 -407 m 0
 622 -8 l 1
 157 1098 l 1
 348 1098 l 1
 710 192 l 1
 1029 1098 l 1
 1212 1098 l 1
 1212 1098 910 271 812 32 c 1
 623 -462 l 1
 465 -407 l 0
EndSplineSet
PickledData: "(dp1
S'com.typemytype.robofont.layerData'
p2
(dp3
s."
EndChar

StartChar: yen
Encoding: 100 165 271
Width: 1367
VWidth: 0
Flags: HW
LayerCount: 2
Fore
SplineSet
158 296 m 1
 159 447 l 1
 516 447 l 1
 516 598 l 1
 399 598 281 598 164 598 c 1
 164 754 l 1
 436 754 l 1
 69 1493 l 1
 276 1493 l 1
 611 775 l 1
 950 1493 l 1
 1161 1493 l 1
 785 754 l 1
 1054 754 l 1
 1054 598 l 1
 937 598 820 598 703 598 c 1
 703 447 l 1
 1058 447 l 1
 1058 296 l 1
 703 296 l 1
 703 0 l 1
 516 0 l 1
 516 296 l 1
 158 296 l 1
EndSplineSet
EndChar

StartChar: z
Encoding: 90 122 272
Width: 1367
VWidth: 0
Flags: HW
HStem: 0 140<481 1051> 958 140<308 813>
LayerCount: 2
Fore
SplineSet
308 1098 m 5
 1016 1098 l 5
 1016 960 l 5
 481 140 l 5
 1051 138 l 5
 1051 0 l 5
 289 0 l 5
 289 142 l 5
 813 958 l 5
 308 958 l 5
 308 1098 l 5
EndSplineSet
PickledData: "(dp1
S'com.typemytype.robofont.layerData'
p2
(dp3
s."
EndChar

StartChar: zero
Encoding: 16 48 275
Width: 1367
VWidth: 0
Flags: HW
LayerCount: 2
Fore
SplineSet
615 1365 m 0
 418 1365 320 1091 320 746 c 0
 320 576 344 425 392 314 c 1
 751 1311 l 1
 713 1345 667 1365 615 1365 c 0
615 -24 m 0
 276 -24 123 337 123 747 c 0
 123 1124 242 1517 615 1517 c 0
 988 1517 1107 1124 1107 747 c 0
 1107 337 954 -24 615 -24 c 0
842 1171 m 1
 488 176 l 1
 524 146 567 130 615 130 c 0
 811 130 911 401 911 746 c 0
 911 911 886 1061 842 1171 c 1
EndSplineSet
EndChar

StartChar: uni0237
Encoding: 253 567 276
Width: 1367
VWidth: 0
Flags: HW
LayerCount: 2
Fore
SplineSet
460 -220 m 2
 646 -220 672 -176 672 71 c 2
 672 958 l 1
 280 958 l 1
 280 1098 l 1
 854 1098 l 1
 854 127 l 2
 854 -199 838 -360 462 -360 c 2
 198 -360 l 1
 198 -220 l 1
 460 -220 l 2
EndSplineSet
EndChar

StartChar: arrowdown
Encoding: 279 8595 277
Width: 1367
VWidth: 0
Flags: HW
LayerCount: 2
Fore
SplineSet
334 716 m 1
 453 716 l 1
 544 444 l 1
 544 1415 l 1
 685 1415 l 1
 685 437 l 1
 779 716 l 1
 897 716 l 1
 680 71 l 1
 551 71 l 1
 334 716 l 1
EndSplineSet
EndChar

StartChar: arrowup
Encoding: 278 8593 278
Width: 1367
VWidth: 0
Flags: HW
LayerCount: 2
Fore
SplineSet
897 770 m 1
 778 769 l 1
 686 1042 l 1
 686 71 l 1
 545 71 l 1
 545 1048 l 1
 452 769 l 1
 334 770 l 1
 551 1415 l 1
 680 1415 l 1
 897 770 l 1
EndSplineSet
EndChar

StartChar: uni2423
Encoding: 281 9251 279
Width: 1367
VWidth: 0
Flags: HW
LayerCount: 2
Fore
SplineSet
1066 0 m 1
 165 0 l 1
 165 187 165 375 165 562 c 1
 323 562 l 1
 323 145 l 1
 908 145 l 1
 908 562 l 1
 1066 562 l 1
 1066 375 1066 187 1066 0 c 1
EndSplineSet
EndChar

StartChar: u.alt
Encoding: 283 -1 282
Width: 1367
VWidth: 0
Flags: HW
LayerCount: 2
Fore
SplineSet
616 -24 m 0
 350 -24 191 91 191 356 c 2
 191 1098 l 1
 374 1098 l 1
 374 340 l 2
 374 183 449 116 616 116 c 0
 783 116 858 183 858 340 c 2
 858 1098 l 1
 1040 1098 l 1
 1040 356 l 2
 1040 91 882 -24 616 -24 c 0
EndSplineSet
EndChar
